<?xml version="1.0" encoding="utf-8"?>
<!-- Generator: Adobe Illustrator 24.1.2, SVG Export Plug-In . SVG Version: 6.00 Build 0)  -->
<svg version="1.1" id="Camada_1" focusable="false" xmlns="http://www.w3.org/2000/svg" xmlns:xlink="http://www.w3.org/1999/xlink"
	 x="0px" y="0px" viewBox="0 0 448 512" style="enable-background:new 0 0 448 512;" xml:space="preserve">
<style type="text/css">
	.st0{fill:#FFFFFF;}
</style>
<path class="st0" d="M16,170.2h416c8.8,0,16-4.3,16-9.5v-23.9c0-5.3-7.2-9.5-16-9.5H16c-8.8,0-16,4.3-16,9.5v23.9
	C0,165.9,7.2,170.2,16,170.2z M16,265.6h416c8.8,0,16-4.3,16-9.5v-23.9c0-5.3-7.2-9.5-16-9.5H16c-8.8,0-16,4.3-16,9.5V256
	C0,261.3,7.2,265.6,16,265.6z M16,361h416c8.8,0,16-4.3,16-9.5v-23.9c0-5.3-7.2-9.5-16-9.5H16c-8.8,0-16,4.3-16,9.5v23.9
	C0,356.7,7.2,361,16,361z"/>
</svg>
