<svg height="40" width="50" xmlns="http://www.w3.org/2000/svg" viewBox="0 0 61.768 60">
                                        <path id="git" d="M60.6,27.324,33.631,1.13A4.073,4.073,0,0,0,28,1.13L22.412,6.566l7.1,6.9a4.83,4.83,0,0,1,4.873,1.113,4.5,4.5,0,0,1,1.115,4.74l6.841,6.65a4.8,4.8,0,0,1,5.566,1.9,4.5,4.5,0,0,1-.676,5.694,4.828,4.828,0,0,1-6.692,0,4.519,4.519,0,0,1-1.04-4.99L33.1,22.387V38.7a4.721,4.721,0,0,1,1.256.87,4.526,4.526,0,0,1,0,6.5,4.846,4.846,0,0,1-6.714,0,4.493,4.493,0,0,1,0-6.495A4.875,4.875,0,0,1,29.2,38.56V22.087a4.655,4.655,0,0,1-2.576-2.493,4.464,4.464,0,0,1,.013-3.532L19.653,9.25,1.158,27.2a3.812,3.812,0,0,0,0,5.473L28.13,58.867a4.059,4.059,0,0,0,5.626,0L60.6,32.793a3.782,3.782,0,0,0,0-5.466" transform="translate(0 0)" fill="#ec3636"/>
                                    </svg>