<svg height="40" width="50" xmlns="http://www.w3.org/2000/svg" viewBox="0 0 59.14 59.64">
                                        <path id="github" d="M29.57,0A28.207,28.207,0,0,1,44.412,4.1,29.949,29.949,0,0,1,55.174,15.224,30.681,30.681,0,0,1,59.14,30.567,30.385,30.385,0,0,1,53.5,48.536,29.051,29.051,0,0,1,38.925,59.581a1.682,1.682,0,0,1-1.541-.278,1.58,1.58,0,0,1-.5-1.194q0-.119.02-3.045t.02-5.353q0-3.86-2-5.651a25.656,25.656,0,0,0,3.946-.717,15.436,15.436,0,0,0,3.619-1.552A10.831,10.831,0,0,0,45.6,39.144a12.506,12.506,0,0,0,2.04-4.179,20.706,20.706,0,0,0,.792-5.989,12.014,12.014,0,0,0-3.042-8.2,10.926,10.926,0,0,0-.309-8.119,4.89,4.89,0,0,0-3.118.438,20.512,20.512,0,0,0-3.542,1.751l-1.464.956a26.939,26.939,0,0,0-14.785,0q-.616-.438-1.636-1.075a22.818,22.818,0,0,0-3.213-1.533,5.142,5.142,0,0,0-3.272-.538,10.926,10.926,0,0,0-.309,8.119,12.014,12.014,0,0,0-3.042,8.2,20.519,20.519,0,0,0,.789,5.971,12.918,12.918,0,0,0,2.024,4.179,10.524,10.524,0,0,0,3.1,2.666,15.358,15.358,0,0,0,3.619,1.552,25.755,25.755,0,0,0,3.946.717,6.812,6.812,0,0,0-1.886,4.1,7.521,7.521,0,0,1-1.733.6,10.423,10.423,0,0,1-2.195.2,4.453,4.453,0,0,1-2.522-.856,6.924,6.924,0,0,1-2.137-2.488,6.336,6.336,0,0,0-1.868-2.07,5.559,5.559,0,0,0-1.906-.956l-.77-.119a2.44,2.44,0,0,0-1.117.178.339.339,0,0,0-.192.458,2.2,2.2,0,0,0,.347.557,2.871,2.871,0,0,0,.5.477l.269.2a4.685,4.685,0,0,1,1.676,1.513,10.044,10.044,0,0,1,1.212,2.029l.384.915a5.041,5.041,0,0,0,1.694,2.447,5.91,5.91,0,0,0,2.579,1.194,15.771,15.771,0,0,0,2.676.278,11.1,11.1,0,0,0,2.137-.139l.885-.16q0,1.513.02,3.522t.02,2.169a1.58,1.58,0,0,1-.5,1.194,1.682,1.682,0,0,1-1.541.278A29.042,29.042,0,0,1,5.64,48.531,30.383,30.383,0,0,1,0,30.567,30.681,30.681,0,0,1,3.966,15.224,29.949,29.949,0,0,1,14.727,4.1,28.207,28.207,0,0,1,29.57,0ZM11.2,43.9q.115-.278-.269-.477-.384-.119-.5.08-.115.278.269.477Q11.049,44.22,11.2,43.9ZM12.4,45.254q.269-.2-.077-.637-.384-.358-.616-.119-.269.2.077.637Q12.166,45.532,12.4,45.254Zm1.155,1.792q.347-.279,0-.756-.309-.518-.654-.239-.347.2,0,.717T13.553,47.045Zm1.616,1.671q.309-.319-.154-.756-.462-.477-.77-.119-.347.319.154.756Q14.861,49.075,15.169,48.716Zm2.195,1q.115-.438-.5-.637-.578-.16-.731.278t.5.6q.578.239.731-.239Zm2.426.2q0-.518-.654-.438-.616,0-.616.438,0,.518.654.438Q19.79,50.348,19.79,49.91Zm2.233-.4q-.077-.438-.693-.358-.616.119-.539.6t.693.319q.616-.16.539-.557Z" fill="#6423ff"/>
                                    </svg>