<svg height="40" width="50" xmlns="http://www.w3.org/2000/svg" viewBox="0 0 55 60">
                                        <path id="language-javascript" d="M0,0H55V60H0ZM14.467,50.157A7.746,7.746,0,0,0,22.2,55.313a7.575,7.575,0,0,0,5.657-2.11q2.076-2.11,2.076-6.328V27.5H24.779V46.718q0,3.593-2.721,3.593-1.862,0-3.437-2.968Zm18.19-.625q2.721,5.782,9.454,5.782a9,9,0,0,0,6.23-2.11A7.262,7.262,0,0,0,50.7,47.5a7.8,7.8,0,0,0-1.647-5.313,16.357,16.357,0,0,0-5.228-3.593l-1.289-.625A8.781,8.781,0,0,1,40.1,36.483a2.612,2.612,0,0,1-.717-1.953,2.347,2.347,0,0,1,.645-1.64,2.31,2.31,0,0,1,1.791-.7,3.862,3.862,0,0,1,3.438,2.343l3.867-2.813a7.651,7.651,0,0,0-7.3-4.532,7.183,7.183,0,0,0-7.592,7.5,7.762,7.762,0,0,0,1.575,5.157,12.974,12.974,0,0,0,4.727,3.282l1.289.625q1.433.782,2.076,1.093a3.073,3.073,0,0,1,1.146,1.015,2.747,2.747,0,0,1,.5,1.64,2.528,2.528,0,0,1-.93,2.032,3.773,3.773,0,0,1-2.507.782q-3.294,0-5.156-3.438Z" fill="#fd0"/>
                                    </svg>