<svg height="40" width="50" xmlns="http://www.w3.org/2000/svg"  viewBox="0 0 55 60">
                                        <g id="Grupo_2" data-name="Grupo 2" transform="translate(-689.062 -623.68)">
                                            <path id="mongodb" d="M27.416,15.48C25.325,6.437,20.392,3.466,19.862,2.329A14.516,14.516,0,0,1,18.649,0l-.008.08V.1h0q0,.031-.007.063V.188h0l0,.042V.272H18.62c0,.013,0,.029-.006.041V.348h0a.12.12,0,0,1,0,.035V.415h0l0,.052v0l-.014.081V.565h0l-.006.02V.613h-.006V.648h-.008V.678h-.008V.712H18.55v.03h-.007V.771h-.01V.794h-.007V.823h-.007V.846h-.008V.866h-.006V.89H18.5L18.5.9V.913h-.006l0,.01v.01h0a.07.07,0,0,0,0,.016l-.017.035v0A.049.049,0,0,0,18.46,1v.013h-.007v.013h-.008v.013H18.44v.016h-.01v.023h-.007v.007h-.007V1.1H18.41v.018H18.4v.013h-.01v.018h-.007v.013h-.008v.013h-.006v.016h-.008V1.2h-.007v.01h-.007v.013h-.01v.012h-.007v.01h-.008v.013h-.007v.018h-.008v.007h-.006V1.3H18.3V1.3h-.007V1.32h-.007v.007h-.007v.013h-.008v.01h-.006l0,.007v.007h0l0,.007v0h0a.026.026,0,0,1-.007.012v.005h0l-.019.027v0s-.012.01-.014.016v0h0l-.006.005v.005h0l-.006.005v0h0l-.006.007v.007h-.006l0,0v0h0s0,0,0,.005v.005h-.007l0,.005V1.5h-.006V1.5H18.15v.01h-.007v.013h-.008V1.513h-.008v.007h-.007v.01h-.008v.013h-.008v.007H18.1v.01h-.007v.007h-.007v.013h-.01v.007h-.007v.01h-.008V1.6h-.007v.008h-.008v.016h0v.007h-.01v.008h-.007v0H18.02v.007h-.008v.016h-.007v.007H18v.007h-.007v.01h-.008v.007h-.008V1.7H17.97v.007h-.007v.016h-.007v.008h-.01v.007H17.94v.007h-.008v.01h-.007V1.76h-.008v.012h-.007v.007H17.9v.011h0V1.8h-.007V1.8h-.008v.007h-.007v.01h-.008v.007h-.006l0,0v0h0l-.007.007-.007.005v.01h-.007v.008h-.007v.007h-.007v.007H17.82l-.006.005v.005h0l0,0v.005h0a.164.164,0,0,1-.023.026.6.6,0,0,0-.084.068l-.036.028v0h0l-.082.063v0l-.123.1v0h0c-.095.077-.194.163-.308.258v0h0c-.28.241-.613.55-.985.924l-.024.024-.007.007A22.2,22.2,0,0,0,9.949,18.158a16.563,16.563,0,0,0,.01,1.861v.014a17.5,17.5,0,0,0,2.364,7.735v0a20.163,20.163,0,0,0,1.533,2.285v0a20.969,20.969,0,0,0,4.163,4.108,13.375,13.375,0,0,1,.662,4.519l1.066.35a19.1,19.1,0,0,1,.088-4.1,2.527,2.527,0,0,1,.577-1.077,13.831,13.831,0,0,0,1.32-1.05c.03-.03.046-.059.073-.088a18.4,18.4,0,0,0,5.61-17.239Z" transform="translate(697.709 634)" fill="#10c54c"/>
                                            <g id="shield" transform="translate(689.062 623.68)">
                                                <path id="Caminho_24" data-name="Caminho 24" d="M19.914,7.089Q14.3,8.564,8.769,10.3A1.83,1.83,0,0,0,7.48,11.761c-2.18,15.588,2.85,26.964,8.851,34.455a41.309,41.309,0,0,0,8.985,8.372,24.692,24.692,0,0,0,3.5,2,8.987,8.987,0,0,0,1.152.439,3.042,3.042,0,0,0,.4.1,2.393,2.393,0,0,0,.4-.092,9.748,9.748,0,0,0,1.152-.444,24.593,24.593,0,0,0,3.5-2,41.326,41.326,0,0,0,8.985-8.372c6-7.492,11.034-18.868,8.853-34.455A1.83,1.83,0,0,0,51.975,10.3c-2.561-.8-6.879-2.1-11.145-3.207-4.359-1.124-8.371-1.964-10.458-1.964S24.277,5.964,19.914,7.089ZM18.867,3.226c4.266-1.106,8.793-2.1,11.5-2.1s7.239,1,11.5,2.1q5.707,1.5,11.338,3.26a5.857,5.857,0,0,1,4.1,4.736c2.343,16.788-3.092,29.228-9.682,37.46a45.357,45.357,0,0,1-9.891,9.2,28.555,28.555,0,0,1-4.119,2.345,8.644,8.644,0,0,1-3.256.9,8.644,8.644,0,0,1-3.256-.9A28.413,28.413,0,0,1,23,57.881a45.36,45.36,0,0,1-9.885-9.2c-6.6-8.231-12.027-20.672-9.683-37.46a5.855,5.855,0,0,1,4.1-4.736q5.629-1.761,11.338-3.26Z" transform="translate(-2.872 -1.125)" fill="#0f19"/>
                                            </g>
                                        </g>
                                    </svg>