<svg height="40" width="50" xmlns="http://www.w3.org/2000/svg" viewBox="0 0 65.527 66.36">
                                        <path id="Icon_simple-next-dot-js" data-name="Icon simple-next-dot-js" d="M48.636,62.219c-.243.13-.229.182.014.058a.622.622,0,0,0,.191-.13c0-.044-.005-.039-.2.072Zm.486-.26c-.115.091-.115.1.025.025a.393.393,0,0,0,.142-.1C49.288,61.835,49.256,61.849,49.122,61.959Zm.319-.2c-.115.091-.115.1.025.025a.393.393,0,0,0,.142-.1C49.608,61.638,49.575,61.652,49.441,61.763Zm.319-.194c-.115.091-.115.1.025.025a.393.393,0,0,0,.142-.1C49.927,61.445,49.894,61.459,49.761,61.569Zm.442-.29c-.224.144-.295.241-.1.13.142-.083.371-.26.333-.265a1.267,1.267,0,0,0-.238.135ZM30.618.014c-.142.014-.59.058-.994.091A33.1,33.1,0,0,0,.3,28.354,25.76,25.76,0,0,0,0,33.187,25.776,25.776,0,0,0,.3,38.021,33.2,33.2,0,0,0,22.708,64.829a34.24,34.24,0,0,0,6.916,1.452,59.414,59.414,0,0,0,6.277,0,32.766,32.766,0,0,0,11.8-3.5c.562-.293.672-.371.6-.434q-2.693-3.6-5.335-7.245l-5.24-7.167L31.161,38.1q-3.274-4.938-6.61-9.833c-.025-.006-.052,4.366-.063,9.7-.019,9.346-.025,9.722-.142,9.944a1.166,1.166,0,0,1-.562.589c-.2.105-.385.124-1.352.124H21.323l-.295-.188a1.217,1.217,0,0,1-.429-.473l-.134-.293.014-13,.019-13.01.2-.252a1.744,1.744,0,0,1,.475-.4c.262-.13.366-.144,1.474-.144,1.308,0,1.524.053,1.865.429q3.986,6.007,7.9,12.059c4.254,6.531,10.067,15.449,12.926,19.829l5.188,7.958.262-.174a33.828,33.828,0,0,0,6.73-5.981,33.207,33.207,0,0,0,7.711-16.962,25.759,25.759,0,0,0,.295-4.834,25.777,25.777,0,0,0-.295-4.834A33.2,33.2,0,0,0,42.823,1.551,33.9,33.9,0,0,0,36,.1c-.614-.064-4.849-.135-5.379-.083Zm13.412,20.07a1.3,1.3,0,0,1,.647.766c.052.169.063,3.774.052,11.9l-.019,11.664-2.031-3.152-2.037-3.152V29.631c0-5.481.025-8.561.063-8.71a1.336,1.336,0,0,1,.633-.818c.262-.135.358-.149,1.365-.149C43.65,19.953,43.817,19.967,44.029,20.083Z" transform="translate(-0.001 -0.004)" fill="#6161f5"/>
                                    </svg>