<svg height="40" width="50" xmlns="http://www.w3.org/2000/svg"  viewBox="0 0 52.987 60.32">
                                        <g id="logo-nodejs" transform="translate(-4.5 -2.25)">
                                            <path id="Caminho_22" data-name="Caminho 22" d="M54.971,15.455,33.523,2.9a5.217,5.217,0,0,0-5.057,0L7.016,15.453A5.116,5.116,0,0,0,4.5,19.864V44.929a5.124,5.124,0,0,0,2.516,4.415l5.624,3.278.031.017c2.84,1.417,3.927,1.417,5.187,1.417,4.435,0,7.19-2.8,7.19-7.309v-24.3a1.159,1.159,0,0,0-1.162-1.155H20.8a1.159,1.159,0,0,0-1.162,1.155v24.3a2.007,2.007,0,0,1-.946,1.76,3.515,3.515,0,0,1-3.33-.289L9.971,45.053a.146.146,0,0,1-.067-.124V20.219a.177.177,0,0,1,.08-.144L30.936,7.554a.116.116,0,0,1,.1,0L52,20.075a.179.179,0,0,1,.077.147V44.929a.171.171,0,0,1-.063.134l-20.983,12.2a.173.173,0,0,1-.11,0l-5.358-3.1a1.1,1.1,0,0,0-1.081-.056l-.047.027A15.243,15.243,0,0,1,21.189,55.7c-.224.079-.75.27-.795.777s.453.869.9,1.12l7.161,4.291a5.015,5.015,0,0,0,2.526.682h.08a5.042,5.042,0,0,0,2.461-.682L54.969,49.35a5.139,5.139,0,0,0,2.518-4.421V19.864A5.118,5.118,0,0,0,54.971,15.455Z" fill="#10c54c"/>
                                            <path id="Caminho_23" data-name="Caminho 23" d="M27.325,32.679c-5.146,0-6.243-1.438-6.568-3.758a1.164,1.164,0,0,0-1.134-1.011H16.89a1.164,1.164,0,0,0-1.14,1.183c0,2.012.706,8.578,11.581,8.578A13.174,13.174,0,0,0,35.42,35.4a7.6,7.6,0,0,0,2.959-6.237c0-5.181-3.381-6.6-10.038-7.528-6.769-.942-6.769-1.421-6.769-2.469,0-.756,0-2.522,4.892-2.522,3.481,0,5.346.44,5.942,2.759a1.152,1.152,0,0,0,1.113.92h2.742a1.136,1.136,0,0,0,.85-.394,1.228,1.228,0,0,0,.292-.889c-.355-4.906-3.941-7.393-10.935-7.393-6.356,0-10.148,2.863-10.148,7.658,0,5.257,3.931,6.743,9.838,7.359,6.9.714,6.9,1.754,6.9,2.673,0,1.433-.591,3.344-5.732,3.344Z" transform="translate(10.828 8.269)" fill="#10c54c"/>
                                        </g>
                                    </svg>