<svg height="40" width="50" xmlns="http://www.w3.org/2000/svg" viewBox="0 0 55 59.64">
                                        <path id="adobephotoshop" d="M13.521,15.385c0-.153.046-.28.229-.28,1.444-.076,3.506-.127,5.729-.127,6.188,0,8.892,3.772,8.892,8.615,0,6.321-4.171,9.022-9.212,9.022-.848,0-1.146-.051-1.742-.051v9.685c0,.2-.069.28-.252.28H13.773c-.183,0-.252-.076-.252-.28Zm3.9,13.2a17.215,17.215,0,0,0,1.81.051c2.612,0,5.11-1.019,5.11-4.97,0-3.16-1.788-4.766-4.79-4.766-.894,0-1.742.051-2.131.076ZM37.4,25.631c-1.765,0-2.36.994-2.36,1.81,0,.892.413,1.529,2.773,2.88,3.506,1.886,4.606,3.7,4.606,6.372,0,3.976-2.727,6.117-6.417,6.117a9.3,9.3,0,0,1-4.652-1.07c-.138-.076-.183-.2-.183-.408v-3.67c0-.255.115-.331.252-.2A7.973,7.973,0,0,0,36,38.935c1.765,0,2.5-.816,2.5-1.937,0-.892-.5-1.682-2.773-3.007-3.185-1.682-4.492-3.415-4.492-6.27,0-3.211,2.246-5.862,6.165-5.862a10.058,10.058,0,0,1,4.079.688.572.572,0,0,1,.229.484v3.415c0,.2-.115.331-.321.255a7.673,7.673,0,0,0-3.988-1.07ZM9.74.45C4.354.45,0,5.293,0,11.282V49.258C0,55.247,4.354,60.09,9.74,60.09H45.26c5.385,0,9.74-4.843,9.74-10.832V11.282C55,5.293,50.646.45,45.26.45ZM10.61,3H44.367c4.594,0,8.319,4.142,8.319,9.252V48.264a9.794,9.794,0,0,1-2.416,6.554,7.908,7.908,0,0,1-5.88,2.723H10.61c-4.583,0-8.319-4.154-8.319-9.252V12.25C2.292,7.153,6.027,3,10.61,3Z" transform="translate(0 -0.45)" fill="#0d76ff"/>
                                    </svg>