<svg height="40" width="50" xmlns="http://www.w3.org/2000/svg" viewBox="0 0 55.896 59.96">
                                        <path id="Icon_simple-adobexd" data-name="Icon simple-adobexd" d="M46,.45H9.9C4.425.45,0,5.319,0,11.34V49.52c0,6.022,4.425,10.89,9.9,10.89H46c5.473,0,9.9-4.869,9.9-10.89V11.34C55.9,5.319,51.471.45,46,.45Zm7.546,48.07a9.782,9.782,0,0,1-2.455,6.59,8.071,8.071,0,0,1-5.976,2.737H10.783c-4.658,0-8.454-4.177-8.454-9.3V12.314c0-5.125,3.8-9.3,8.454-9.3H45.09c4.669,0,8.454,4.164,8.454,9.3ZM22.1,28.508l6.521,13.786c.116.2.047.41-.14.41H24.431a.456.456,0,0,1-.489-.333c-1.491-3.382-3-6.765-4.565-10.4h-.047C17.933,35.4,16.4,39.014,14.906,42.4a.444.444,0,0,1-.419.282H10.644c-.233,0-.256-.2-.14-.359l6.382-13.376L10.713,15.414c-.14-.2,0-.359.14-.359h4.006a.366.366,0,0,1,.419.282c1.467,3.382,2.958,6.867,4.355,10.275h.047c1.351-3.382,2.841-6.893,4.285-10.25.116-.2.186-.333.419-.333h3.75c.186,0,.256.154.14.359Zm7.662,4.177c0-5.97,3.61-10.634,9.339-10.634a9.394,9.394,0,0,1,1.211.051v-6.79a.245.245,0,0,1,.233-.256h3.68c.186,0,.233.077.233.2V38.783a20.064,20.064,0,0,0,.116,2.511c0,.154-.047.2-.186.282a12.83,12.83,0,0,1-5.962,1.486C33.375,43.088,29.765,39.654,29.765,32.685Zm10.55-6.56a3.239,3.239,0,0,0-1.351-.256c-2.935,0-4.984,2.486-4.984,6.611,0,4.715,2.1,6.611,4.728,6.611a4.033,4.033,0,0,0,1.607-.282V26.125Z" transform="translate(0 -0.45)" fill="#aa3fe6"/>
                                    </svg>