<svg id="svg" xmlns="http://www.w3.org/2000/svg" xmlns:xlink="http://www.w3.org/1999/xlink" width="400" height="400" viewBox="0, 0, 400,400" version="1.1"><g id="svgg"><path id="path0" d="M0.000 135.938 L 0.000 271.875 121.626 271.875 L 243.253 271.875 245.093 263.672 C 252.082 232.513,285.099 210.003,315.864 215.422 C 341.844 219.998,365.196 242.308,368.310 265.527 L 369.161 271.875 384.581 271.875 L 400.000 271.875 400.000 135.938 L 400.000 0.000 200.000 0.000 L 0.000 0.000 0.000 135.938 M352.216 44.698 C 355.129 45.816,355.491 51.696,352.813 54.375 C 349.585 57.602,49.445 57.034,46.205 53.795 C 43.269 50.859,43.079 48.171,45.625 45.625 C 47.613 43.637,347.092 42.732,352.216 44.698 M353.054 88.195 C 354.084 89.437,354.698 92.074,354.417 94.055 L 353.906 97.656 200.951 98.055 C 89.230 98.346,47.423 97.978,45.873 96.691 C 43.070 94.365,43.188 91.410,46.205 88.393 C 49.782 84.816,350.088 84.622,353.054 88.195 M354.668 132.777 C 355.981 135.230,355.671 136.516,353.161 139.027 C 348.808 143.379,53.401 144.082,47.223 139.755 C 43.345 137.039,42.823 134.364,45.625 131.563 C 49.404 127.784,352.634 128.975,354.668 132.777 M352.216 172.823 C 355.129 173.941,355.491 179.821,352.813 182.500 C 351.380 183.933,315.062 184.375,198.873 184.375 L 46.808 184.375 45.049 180.515 C 40.910 171.429,32.994 171.875,198.501 171.875 C 281.685 171.875,350.857 172.302,352.216 172.823 M287.599 230.819 C 262.950 239.523,249.371 273.511,260.508 298.629 C 280.318 343.308,348.455 334.367,356.087 286.086 C 362.171 247.603,325.004 217.611,287.599 230.819 M321.107 246.664 C 346.872 258.369,347.170 295.696,321.600 308.438 C 307.440 315.494,294.024 313.203,282.598 301.777 C 255.475 274.653,286.134 230.776,321.107 246.664 M294.406 259.196 C 277.042 269.785,283.733 296.763,304.410 299.536 C 321.460 301.823,333.886 282.861,325.705 267.041 C 320.475 256.927,304.637 252.958,294.406 259.196 M240.234 348.259 C 230.996 364.432,223.438 378.049,223.438 378.520 C 223.438 379.679,258.539 400.000,260.542 400.000 C 262.205 400.000,295.313 343.528,295.313 340.692 C 295.313 339.796,294.082 339.062,292.578 339.061 C 287.846 339.059,270.902 330.212,264.427 324.362 C 261.011 321.276,257.949 318.774,257.623 318.803 C 257.298 318.832,249.473 332.087,240.234 348.259 M346.438 325.748 C 339.665 331.982,325.326 339.063,319.473 339.063 C 318.216 339.063,317.188 339.547,317.188 340.138 C 317.188 342.517,350.888 399.956,352.296 399.977 C 354.828 400.015,387.837 380.627,388.593 378.658 C 389.290 376.841,356.419 318.692,354.763 318.812 C 354.292 318.846,350.546 321.968,346.438 325.748 " stroke="none" fill="#0066b9" fill-rule="evenodd"></path></g></svg>