<?xml version="1.0" encoding="UTF-8" standalone="no"?>
<!DOCTYPE svg PUBLIC "-//W3C//DTD SVG 1.1//EN" "http://www.w3.org/Graphics/SVG/1.1/DTD/svg11.dtd">
<svg version="1.1" xmlns="http://www.w3.org/2000/svg" xmlns:xlink="http://www.w3.org/1999/xlink" preserveAspectRatio="xMidYMid meet" viewBox="1.2988505747126737 -0.9999999999999787 426.99999999999994 353.09000000000003" width="423" height="349.09"><defs><path d="M119.34 3.37C139.82 12.94 141.57 40.78 122.43 52.72C113.2 58.49 98.16 58.68 89.6 53.15C57.88 32.65 84.95 -12.68 119.34 3.37M84.92 60.64C116.01 70.16 124.84 76.02 141.03 97.89C147.6 106.76 149.86 108.46 164.53 115.57C183.57 124.79 187.4 130.8 179.52 139.11C172.43 146.59 138.96 132.11 126.09 115.99C125.58 115.35 123.06 112.19 118.51 106.5L111.04 123.31L103.56 140.11C108.13 141.02 110.67 141.53 111.18 141.63C115.36 142.46 123.39 143.98 129.01 145.01C146.67 148.24 145.53 145.44 151.83 200.85C157.41 249.99 158.41 244.68 143.57 244.68C136.76 244.68 131.19 244.16 131.19 243.52C131.26 236.22 122.14 168.87 120.99 168.18C120.13 167.67 112.04 165.98 102.99 164.41C101.9 164.22 96.41 163.28 86.55 161.57C84.18 163.67 82.86 164.83 82.6 165.07C78.81 168.42 78.61 169.7 77.62 196.11C75.81 244.34 76.92 240.07 59.58 264.97C58.57 266.42 53.52 273.67 44.43 286.71C36.33 286.73 31.82 286.73 30.92 286.74C11.11 286.77 11.16 286.32 34.32 252.95C35.24 251.61 39.86 244.96 48.17 232.98C48.87 215.22 49.26 205.35 49.34 203.38C50.18 181.77 52.27 162.3 57.07 131.22C64.74 81.56 64.94 84.17 54.09 91.99C44.62 98.8 44.59 98.9 42.62 123.73C41.36 139.7 38.91 143.39 29.6 143.39C19.27 143.39 18.12 139.58 20.52 113.42C23.04 86.1 22.31 87.38 44.43 71.08C64.87 56.03 67.58 55.33 84.92 60.64M425.3 255.34L425.3 347.02C383.5 347.64 360.27 347.99 355.63 348.06C317.31 348.63 222.14 349.09 144.13 349.09C134.67 349.09 87.4 349.09 2.3 349.09L2.3 321.82L2.3 294.55L44.43 294.55L86.57 294.55L86.57 273.51L86.57 252.48L128.7 252.48L170.84 252.48L170.84 230.66L170.84 208.84L212.97 208.84L255.11 208.84L255.11 186.25L255.11 163.65L340.2 163.65L425.3 163.65L425.3 255.34" id="a1mkaKPp3U"></path></defs><g><g><use xlink:href="#a1mkaKPp3U" opacity="1" fill="#0066b9" fill-opacity="1"></use><g><use xlink:href="#a1mkaKPp3U" opacity="1" fill-opacity="0" stroke="#000000" stroke-width="1" stroke-opacity="0"></use></g></g></g></svg>