<svg id="svg" xmlns="http://www.w3.org/2000/svg" xmlns:xlink="http://www.w3.org/1999/xlink" width="400" height="400" viewBox="0, 0, 400,400" version="1.1"><g id="svgg"><path id="path0" d="M194.063 1.875 C 192.711 3.226,192.188 13.924,192.188 40.156 L 192.188 76.563 200.000 76.563 L 207.813 76.563 207.813 66.406 L 207.813 56.250 235.695 56.250 C 271.938 56.250,275.418 53.646,262.333 36.316 L 255.915 27.816 260.819 21.330 C 268.463 11.220,269.530 8.424,267.472 3.906 L 265.692 0.000 230.815 0.000 C 205.771 0.000,195.409 0.529,194.063 1.875 M146.690 129.096 C 118.003 153.640,93.293 174.915,91.781 176.373 C 88.834 179.215,99.813 195.646,104.132 194.858 C 105.116 194.678,121.599 181.172,140.761 164.844 C 193.577 119.841,196.832 117.188,199.227 117.188 C 200.957 117.188,240.224 149.812,291.016 193.448 C 294.164 196.152,296.682 194.461,304.854 184.157 L 309.365 178.470 257.497 134.157 C 228.969 109.785,204.103 88.635,202.239 87.158 C 198.900 84.513,198.057 85.150,146.690 129.096 M161.328 164.186 L 125.000 195.378 125.000 297.689 L 125.000 400.000 142.188 400.000 L 159.375 400.000 159.375 359.487 C 159.375 308.685,154.656 314.063,199.242 314.063 C 243.560 314.062,239.063 308.818,239.063 360.504 L 239.063 400.000 255.469 400.000 L 271.875 400.000 271.804 297.266 L 271.734 194.531 235.866 164.063 C 216.138 147.305,199.471 133.459,198.827 133.294 C 198.183 133.129,181.309 147.031,161.328 164.186 M18.179 242.301 L 14.063 245.539 14.063 322.770 L 14.063 400.000 62.500 400.000 L 110.938 400.000 110.938 319.531 L 110.938 239.063 66.617 239.063 C 24.145 239.063,22.125 239.198,18.179 242.301 M285.938 319.531 L 285.938 400.000 335.938 400.000 L 385.938 400.000 385.938 322.770 L 385.938 245.539 381.821 242.301 C 377.868 239.192,375.873 239.063,331.821 239.063 L 285.938 239.063 285.938 319.531 M236.607 258.705 C 239.823 261.922,239.705 263.420,235.938 267.188 C 231.686 271.439,168.779 272.035,162.848 267.880 C 159.027 265.204,158.344 261.031,161.250 258.125 C 164.391 254.984,233.418 255.516,236.607 258.705 M48.383 274.897 C 54.596 286.506,46.946 306.353,39.022 299.183 C 35.407 295.911,34.510 277.052,37.813 273.750 C 40.683 270.879,46.575 271.519,48.383 274.897 M87.445 274.897 C 93.658 286.506,86.009 306.353,78.085 299.183 C 74.470 295.911,73.573 277.052,76.875 273.750 C 79.746 270.879,85.637 271.519,87.445 274.897 M323.125 273.750 C 326.427 277.052,325.530 295.911,321.915 299.183 C 313.991 306.353,306.342 286.506,312.555 274.897 C 314.363 271.519,320.254 270.879,323.125 273.750 M360.625 273.750 C 367.701 280.826,361.016 304.223,353.125 300.000 C 346.565 296.489,349.300 271.875,356.250 271.875 C 357.625 271.875,359.594 272.719,360.625 273.750 M173.438 364.063 L 173.438 400.000 199.219 400.000 L 225.000 400.000 225.000 364.063 L 225.000 328.125 199.219 328.125 L 173.438 328.125 173.438 364.063 M48.481 339.144 C 52.854 347.315,49.322 364.063,43.226 364.063 C 37.469 364.063,35.938 361.061,35.938 349.776 C 35.938 335.938,43.386 329.624,48.481 339.144 M87.543 339.144 C 91.916 347.315,88.385 364.063,82.289 364.063 C 76.531 364.063,75.000 361.061,75.000 349.776 C 75.000 335.938,82.449 329.624,87.543 339.144 M324.684 349.152 C 325.195 360.685,323.643 364.063,317.832 364.063 C 312.932 364.063,310.938 359.797,310.938 349.321 C 310.938 329.866,323.823 329.707,324.684 349.152 M360.045 336.830 C 366.231 343.017,362.583 364.063,355.323 364.063 C 346.624 364.063,347.814 334.813,356.529 334.423 C 357.112 334.396,358.694 335.480,360.045 336.830 " stroke="none" fill="#0066b9"></path></g></svg>