<svg id="svg" version="1.1" xmlns="http://www.w3.org/2000/svg" xmlns:xlink="http://www.w3.org/1999/xlink" width="400" height="400" viewBox="0, 0, 400,400"><g id="svgg"><path id="path0" d="M180.859 0.859 C 69.564 16.736,21.087 146.407,93.675 234.066 C 105.365 248.183,111.447 259.846,114.921 274.805 L 116.599 282.031 134.862 282.031 L 153.125 282.031 153.125 229.716 C 153.125 169.125,151.779 178.660,163.885 153.516 C 191.954 95.218,194.490 91.750,205.242 96.954 C 208.683 98.620,232.882 144.392,243.668 169.636 L 246.875 177.143 246.875 229.587 L 246.875 282.031 265.156 282.031 L 283.437 282.031 284.767 276.053 C 288.134 260.921,293.836 249.947,307.036 233.203 C 332.157 201.338,341.514 174.103,340.400 136.093 C 337.954 52.596,263.080 -10.870,180.859 0.859 M10.327 63.799 C 0.328 68.727,1.650 77.485,14.363 90.533 C 28.216 104.751,36.137 106.934,42.327 98.241 C 47.008 91.668,45.151 86.461,34.074 75.092 C 22.002 62.702,17.193 60.415,10.327 63.799 M377.301 64.741 C 372.877 67.595,358.455 82.358,356.659 85.872 C 351.096 96.754,363.829 107.614,374.261 100.884 C 378.686 98.030,393.108 83.267,394.904 79.753 C 400.467 68.871,387.733 58.011,377.301 64.741 M189.831 151.590 C 178.905 173.501,179.097 171.729,187.425 173.821 C 196.425 176.082,213.709 174.993,218.797 171.845 C 219.841 171.199,201.348 132.031,200.000 132.031 C 199.771 132.031,195.195 140.833,189.831 151.590 M5.189 142.889 C 1.540 145.294,0.010 148.319,0.010 153.125 C 0.010 157.931,1.540 160.956,5.189 163.361 C 8.571 165.591,38.304 165.591,41.686 163.361 C 48.826 158.654,48.826 147.596,41.686 142.889 C 38.304 140.659,8.571 140.659,5.189 142.889 M358.314 142.889 C 354.665 145.294,353.135 148.319,353.135 153.125 C 353.135 157.931,354.665 160.956,358.314 163.361 C 361.696 165.591,391.429 165.591,394.811 163.361 C 401.951 158.654,401.951 147.596,394.811 142.889 C 391.429 140.659,361.696 140.659,358.314 142.889 M176.563 238.361 L 176.563 282.031 200.000 282.031 L 223.438 282.031 223.438 238.361 L 223.438 194.691 217.383 196.335 C 212.532 197.652,209.076 197.979,200.000 197.979 C 190.924 197.979,187.468 197.652,182.617 196.335 L 176.563 194.691 176.563 238.361 M25.739 205.366 C 21.314 208.220,6.892 222.983,5.096 226.497 C -0.467 237.379,12.267 248.239,22.699 241.509 C 27.123 238.655,41.545 223.892,43.341 220.378 C 48.904 209.496,36.171 198.636,25.739 205.366 M361.889 204.424 C 351.890 209.352,353.213 218.110,365.926 231.158 C 379.778 245.376,387.700 247.559,393.890 238.866 C 398.570 232.293,396.714 227.086,385.637 215.717 C 373.564 203.327,368.756 201.040,361.889 204.424 M117.969 314.721 C 117.969 333.125,126.126 345.390,141.997 350.850 C 148.712 353.160,251.288 353.160,258.003 350.850 C 273.874 345.390,282.031 333.125,282.031 314.721 L 282.031 305.469 200.000 305.469 L 117.969 305.469 117.969 314.721 M145.255 380.356 C 148.800 387.377,154.406 392.996,161.415 396.554 L 167.434 399.609 200.000 399.609 L 232.566 399.609 238.585 396.554 C 245.594 392.996,251.200 387.377,254.745 380.356 L 257.054 375.781 200.000 375.781 L 142.946 375.781 145.255 380.356 " stroke="none" fill="#0066b9" ></path></g></svg>