<svg id="svg" version="1.1" xmlns="http://www.w3.org/2000/svg" xmlns:xlink="http://www.w3.org/1999/xlink" width="400" height="400" viewBox="0, 0, 400,400"><g id="svgg"><path id="path0" d="M138.281 1.593 C 119.248 6.487,102.973 21.854,97.149 40.430 L 95.128 46.875 63.384 46.880 C 20.998 46.887,24.232 44.646,24.224 74.023 L 24.219 93.750 153.125 93.750 L 282.031 93.750 282.026 74.023 C 282.018 44.646,285.252 46.887,242.866 46.880 L 211.122 46.875 209.101 40.430 C 199.983 11.348,168.176 -6.095,138.281 1.593 M158.874 49.139 C 168.241 55.315,164.234 69.521,153.125 69.521 C 142.239 69.521,137.916 55.171,147.041 49.327 C 150.339 47.215,155.824 47.128,158.874 49.139 M329.021 95.269 C 313.458 101.022,306.075 111.933,305.602 129.883 L 305.319 140.625 340.625 140.625 L 375.931 140.625 375.648 129.883 C 375.212 113.345,369.188 103.285,355.859 96.840 C 348.736 93.396,336.093 92.656,329.021 95.269 M24.222 254.492 C 24.225 408.906,23.665 394.655,29.876 398.442 C 33.883 400.885,272.367 400.885,276.374 398.442 C 282.585 394.655,282.025 408.906,282.028 254.492 L 282.031 117.188 153.125 117.188 L 24.219 117.188 24.222 254.492 M228.636 165.801 C 236.148 169.913,236.299 180.799,228.906 185.406 L 226.172 187.109 153.125 187.109 C 81.463 187.109,80.029 187.080,77.485 185.547 C 68.476 180.118,70.550 167.291,80.843 164.778 C 86.487 163.401,226.014 164.367,228.636 165.801 M305.469 222.656 L 305.469 281.250 340.625 281.250 L 375.781 281.250 375.781 222.656 L 375.781 164.063 340.625 164.063 L 305.469 164.063 305.469 222.656 M228.636 212.676 C 236.148 216.788,236.299 227.674,228.906 232.281 L 226.172 233.984 153.125 233.984 C 81.463 233.984,80.029 233.955,77.485 232.422 C 68.476 226.993,70.550 214.166,80.843 211.653 C 86.487 210.276,226.014 211.242,228.636 212.676 M228.636 259.551 C 236.148 263.663,236.299 274.549,228.906 279.156 L 226.172 280.859 153.125 280.859 C 81.463 280.859,80.029 280.830,77.485 279.297 C 68.476 273.868,70.550 261.041,80.843 258.528 C 86.487 257.151,226.014 258.117,228.636 259.551 M158.323 306.426 C 165.836 310.538,165.986 321.424,158.594 326.031 C 154.483 328.592,81.711 328.719,77.485 326.172 C 68.475 320.742,70.543 307.944,80.843 305.395 C 86.257 304.056,155.679 304.979,158.323 306.426 M305.469 307.459 C 305.469 310.109,328.371 366.998,330.880 370.579 C 335.105 376.612,346.162 376.587,350.400 370.536 C 352.944 366.904,375.781 310.168,375.781 307.479 L 375.781 304.688 340.625 304.688 L 305.469 304.688 305.469 307.459 " stroke="none" fill="#0066b9" ></path></g></svg>