<?xml version="1.0" encoding="UTF-8" standalone="no"?>
<!DOCTYPE svg PUBLIC "-//W3C//DTD SVG 1.1//EN" "http://www.w3.org/Graphics/SVG/1.1/DTD/svg11.dtd">
<svg version="1.1" xmlns="http://www.w3.org/2000/svg" xmlns:xlink="http://www.w3.org/1999/xlink" preserveAspectRatio="xMidYMid meet" viewBox="0 0 640 640" width="90" height="90"><defs><path d="M480 12.64C568.38 12.64 640 93.19 640 192.55C640.02 467.7 320.01 604.25 320.01 611.83C320.01 611.83 320.01 611.83 320.01 611.83C320.01 604.25 0 467.7 0 192.53C0 93.17 71.64 12.62 160 12.62C248.37 12.62 318.67 132.59 316 134.57C313.33 136.54 391.63 12.64 480 12.64Z" id="aXVoFJbWQ"></path><path d="M317.33 178.37C311.29 178.79 300.57 185.42 300.57 188.73C300.57 188.91 300.42 189.06 300.24 189.06C300.05 189.06 299.9 189.33 299.9 189.66C299.9 189.99 299.75 190.27 299.57 190.27C299.38 190.27 299.23 190.58 299.23 190.96C299.23 191.34 299.1 191.79 298.93 191.94C297.67 193.17 297.64 201.48 298.88 204.33C299.35 205.4 301.39 209.16 301.59 209.32C303.08 210.5 303.27 211.31 303.18 216.01C303.17 216.32 303.14 217.86 303.08 220.62C301.68 220.85 300.9 220.97 300.74 221C299.45 221.2 297.76 221.38 296.99 221.39C296.22 221.4 295.49 221.55 295.38 221.72C295.26 221.88 294.36 222.02 293.37 222.02C292.37 222.02 291.47 222.15 291.36 222.32C291.24 222.49 290.34 222.62 289.35 222.62C288.35 222.62 287.45 222.76 287.33 222.93C287.22 223.09 286.34 223.23 285.37 223.23C284.4 223.23 283.47 223.35 283.3 223.5C283.12 223.65 282.22 223.85 281.3 223.94C280.38 224.03 278.68 224.25 277.53 224.42C272.07 225.25 271.15 225.38 269.74 225.52C268.91 225.61 267.93 225.8 267.56 225.95C267.19 226.1 266.21 226.29 265.38 226.38C264.55 226.46 262.93 226.67 261.78 226.84C255.65 227.76 252.34 228.26 249.97 228.64C248.95 228.79 247.07 229.08 245.78 229.28C244.49 229.47 242.68 229.74 241.76 229.88C240.84 230.02 239.1 230.28 237.9 230.46C236.71 230.64 234.9 230.92 233.88 231.08C231.29 231.49 228.38 231.92 225.84 232.29C224.64 232.46 222.23 232.81 220.48 233.07C218.73 233.33 216.35 233.62 215.19 233.72C214.03 233.82 213.01 234.01 212.91 234.16C212.81 234.3 211.92 234.42 210.93 234.42C209.94 234.42 209.03 234.55 208.92 234.72C208.8 234.88 208.28 235.02 207.76 235.02C206.48 235.02 204.32 236.1 202.59 237.59C197.34 242.11 198.84 251.08 205.27 253.61C205.98 253.89 206.83 254.25 207.15 254.4C207.47 254.55 208.31 254.68 209.01 254.68C211.1 254.68 211.1 254.64 211.1 262.77C211.1 263.26 211.1 265.72 211.1 270.14C210.52 271.26 210.2 271.88 210.13 272.01C209.6 273.04 208.91 274.42 208.59 275.09C207.84 276.66 205.93 280.35 204.69 282.61C204.16 283.59 203.72 284.58 203.72 284.81C203.72 285.03 203.57 285.22 203.39 285.22C203.2 285.22 203.05 285.42 203.05 285.68C203.05 285.93 202.91 286.37 202.73 286.66C202.55 286.95 201.97 288.07 201.43 289.15C200.89 290.23 200.06 291.9 199.58 292.86C199.09 293.82 198.7 294.67 198.7 294.75C198.7 294.82 198.07 296.08 197.32 297.54C196.56 298.99 195.59 300.87 195.17 301.7C192.45 307.09 191.9 308.17 191.31 309.21C190.95 309.85 190.65 310.57 190.65 310.8C190.65 311.03 190.5 311.22 190.32 311.22C190.13 311.22 189.98 311.43 189.98 311.68C189.98 311.93 189.84 312.38 189.66 312.66C189.21 313.41 186.9 317.96 185.78 320.3C185.27 321.38 184.26 323.42 183.54 324.83C182.82 326.25 182 327.88 181.71 328.46C180.48 330.96 178.85 334.14 178.24 335.22C177.88 335.86 177.58 336.57 177.58 336.8C177.58 337.04 177.43 337.23 177.25 337.23C177.06 337.23 176.91 337.5 176.91 337.83C176.91 338.17 176.76 338.44 176.58 338.44C176.39 338.44 176.24 338.64 176.24 338.9C176.24 339.15 176.11 339.59 175.94 339.88C175.36 340.87 173.29 344.94 172.21 347.21C170.69 350.38 169.96 351.85 167.06 357.57C166.61 358.44 165.71 360.17 165.05 361.42C164.39 362.67 163.84 363.86 163.84 364.07C163.84 364.27 163.69 364.45 163.51 364.45C163.32 364.45 163.17 364.65 163.17 364.9C163.17 365.15 163.03 365.6 162.85 365.89C162.37 366.68 159.32 372.67 158.04 375.33C157.39 376.69 155.96 379.56 154.9 381.68C154.43 382.6 153.94 383.62 153.8 383.95C153.65 384.28 153.38 384.92 153.18 385.37C152.94 385.91 152.93 386.51 153.14 387.18C153.31 387.73 153.45 388.71 153.45 389.37C153.45 390.02 153.59 390.98 153.76 391.49C153.93 392 154.24 392.96 154.46 393.63C155.01 395.32 157.68 400.19 158.48 400.97C158.85 401.32 159.15 401.7 159.15 401.81C159.15 402.03 162.83 405.55 164.31 406.75C164.85 407.18 165.6 407.81 165.99 408.15C167.4 409.39 174.14 413.24 176.91 414.39C179.44 415.44 181.83 416.37 182.95 416.74C184.52 417.25 185.67 417.68 186.38 418C186.7 418.15 187.26 418.27 187.64 418.27C188.01 418.27 188.58 418.39 188.9 418.54C189.94 419.01 191.85 419.48 192.75 419.48C193.23 419.48 193.72 419.62 193.84 419.78C193.95 419.95 194.63 420.09 195.34 420.09C196.06 420.09 196.74 420.22 196.85 420.39C196.97 420.55 197.85 420.69 198.82 420.69C199.78 420.69 200.72 420.82 200.89 420.97C201.97 421.91 229.61 421.91 230.68 420.97C230.86 420.82 231.79 420.69 232.76 420.69C233.72 420.69 234.6 420.57 234.7 420.42C234.8 420.27 235.45 420.08 236.14 419.99C238.32 419.72 241.34 419.07 242.76 418.57C243.13 418.45 244.11 418.16 244.94 417.95C245.77 417.73 246.6 417.47 246.79 417.36C246.97 417.26 247.8 416.98 248.63 416.74C255.89 414.68 268.43 407.07 271.58 402.8C271.77 402.55 272.62 401.41 273.47 400.26C275.39 397.66 276.67 395.18 277.43 392.57C277.65 391.82 277.97 390.79 278.14 390.28C278.54 389.09 278.55 385.16 278.15 384.47C277.31 383.04 273.64 375.78 272.53 373.37C272.07 372.37 271.17 370.53 270.52 369.28C269.87 368.04 269.06 366.47 268.74 365.81C268.41 365.14 267.61 363.58 266.97 362.33C266.32 361.08 265.4 359.28 264.92 358.32C264.44 357.37 263.68 355.87 263.24 355C261.76 352.08 260.63 349.8 259.29 347.06C257.7 343.8 256.5 341.43 255.63 339.85C255.28 339.21 255 338.49 255 338.26C255 338.03 254.84 337.83 254.66 337.83C254.48 337.83 254.33 337.64 254.33 337.41C254.33 337.18 254.03 336.46 253.67 335.82C253.08 334.78 252.54 333.72 249.8 328.31C249.38 327.48 248.58 325.91 248.03 324.83C247.47 323.75 246.38 321.57 245.61 319.99C243.59 315.84 242.93 314.51 242.4 313.52C242.14 313.04 241.93 312.46 241.93 312.24C241.93 312.01 241.78 311.83 241.59 311.83C241.41 311.83 241.26 311.64 241.26 311.4C241.26 311.17 240.96 310.46 240.6 309.82C239.93 308.62 236.75 302.47 236.24 301.4C236.09 301.06 235.51 299.91 234.95 298.83C233.02 295.05 232.26 293.51 230.89 290.66C230.14 289.08 229.37 287.55 229.19 287.26C229.01 286.97 228.86 286.53 228.86 286.28C228.86 286.03 228.71 285.82 228.52 285.82C228.34 285.82 228.19 285.55 228.19 285.22C228.19 284.89 228.04 284.61 227.85 284.61C227.67 284.61 227.52 284.42 227.52 284.19C227.52 283.95 227.23 283.24 226.88 282.6C226.52 281.96 225.61 280.21 224.85 278.72C224.09 277.22 223.32 275.76 223.14 275.47C222.97 275.18 222.82 274.74 222.82 274.49C222.82 274.24 222.67 274.03 222.49 274.03C222.3 274.03 222.15 273.83 222.15 273.59C222.15 273.34 221.85 272.65 221.48 272.05C220.84 271.03 220.81 270.51 220.89 262.9C220.9 262.36 220.93 259.67 220.98 254.83L262.12 254.75L303.25 254.67L303.25 308.47L303.25 362.26C302.71 362.58 302.41 362.76 302.35 362.79C301.31 363.41 299.9 364.63 299.9 364.91C299.9 365.02 299.63 365.47 299.29 365.91C297.89 367.76 297.89 367.7 297.89 405.98C297.89 408.43 297.89 420.69 297.89 442.75C297.44 443 297.19 443.14 297.14 443.16C296.72 443.39 295.7 443.75 294.87 443.96C294.05 444.17 293.06 444.45 292.7 444.58C292.33 444.71 290.44 445.25 288.51 445.79C286.57 446.32 283.83 447.08 282.41 447.48C280.99 447.88 279.53 448.21 279.16 448.21C278.79 448.21 278.4 448.34 278.29 448.51C278.17 448.68 277.72 448.81 277.28 448.81C276.84 448.81 276.39 448.95 276.28 449.12C276.16 449.28 275.77 449.42 275.41 449.42C275.05 449.42 274.5 449.54 274.18 449.69C273.86 449.84 272.92 450.13 272.09 450.32C271.26 450.52 270.32 450.81 270 450.96C269.68 451.11 269.18 451.23 268.9 451.23C268.62 451.23 268.13 451.35 267.81 451.5C267.49 451.65 266.1 452.09 264.71 452.48C257.87 454.38 254.01 457.69 252.02 463.35C251.79 464 251.64 466.81 251.64 470.48C251.64 470.88 251.64 472.9 251.64 476.52C252.36 477.28 252.76 477.7 252.84 477.79C253.59 478.57 254.33 479.05 254.79 479.05C255.2 479.05 255.83 479.25 256.19 479.5C257.17 480.17 382.84 480.17 383.83 479.5C384.19 479.25 384.82 479.05 385.23 479.05C385.69 479.05 386.43 478.57 387.17 477.79C387.25 477.7 387.65 477.28 388.37 476.52C388.37 472.9 388.37 470.88 388.37 470.48C388.37 466.81 388.22 464 387.99 463.35C386.01 457.69 382.15 454.38 375.3 452.48C373.92 452.09 372.53 451.65 372.21 451.5C371.89 451.35 371.4 451.23 371.11 451.23C370.83 451.23 370.34 451.11 370.02 450.96C369.7 450.81 368.76 450.52 367.93 450.32C367.1 450.13 366.16 449.84 365.84 449.69C365.52 449.54 364.96 449.42 364.6 449.42C364.24 449.42 363.86 449.28 363.74 449.12C363.63 448.95 363.17 448.81 362.74 448.81C362.3 448.81 361.84 448.68 361.73 448.51C361.62 448.34 361.22 448.21 360.86 448.21C360.49 448.21 359.03 447.88 357.61 447.48C356.19 447.08 353.44 446.32 351.51 445.79C349.57 445.25 347.69 444.71 347.32 444.58C346.95 444.45 345.97 444.17 345.14 443.96C344.31 443.75 343.29 443.39 342.88 443.16C342.83 443.14 342.58 443 342.13 442.75C342.12 420.57 342.12 408.25 342.12 405.79C342.12 367.17 342.14 367.86 340.7 365.88C340.38 365.43 340.12 364.99 340.12 364.9C340.12 364.63 338.68 363.39 337.67 362.79C337.61 362.76 337.31 362.58 336.76 362.26L336.85 308.54L336.93 254.83L377.98 254.83L419.04 254.83C419.09 259.67 419.12 262.36 419.12 262.9C419.21 270.51 419.18 271.03 418.54 272.05C418.17 272.65 417.86 273.34 417.86 273.59C417.86 273.83 417.71 274.03 417.53 274.03C417.34 274.03 417.19 274.24 417.19 274.49C417.19 274.74 417.05 275.18 416.87 275.47C416.7 275.76 415.93 277.22 415.17 278.72C414.41 280.21 413.49 281.96 413.14 282.6C412.79 283.24 412.5 283.95 412.5 284.19C412.5 284.42 412.35 284.61 412.17 284.61C411.98 284.61 411.83 284.89 411.83 285.22C411.83 285.55 411.68 285.82 411.5 285.82C411.31 285.82 411.16 286.07 411.16 286.37C411.16 286.67 411.04 287.04 410.88 287.2C410.73 287.36 410.14 288.51 409.57 289.75C408.52 292.07 407.27 294.59 405.3 298.37C404.7 299.54 403.94 301.03 403.63 301.7C402.89 303.25 400.98 306.94 399.73 309.23C399.2 310.2 398.76 311.19 398.76 311.42C398.76 311.64 398.61 311.83 398.43 311.83C398.24 311.83 398.09 312.01 398.09 312.24C398.09 312.46 397.88 313.04 397.62 313.52C397.09 314.51 396.43 315.84 394.4 319.99C393.63 321.57 392.55 323.75 391.99 324.83C391.44 325.91 390.71 327.34 390.38 328.01C389.13 330.52 386.97 334.7 386.34 335.82C385.98 336.46 385.69 337.18 385.69 337.41C385.69 337.64 385.54 337.83 385.36 337.83C385.17 337.83 385.02 338.04 385.02 338.29C385.02 338.54 384.88 338.99 384.7 339.27C384.21 340.05 382.2 344.06 381.19 346.25C380.7 347.3 379.72 349.27 379.01 350.63C378.3 351.99 377.39 353.79 376.98 354.62C375.67 357.28 373.95 360.63 373.28 361.83C372.92 362.47 372.62 363.18 372.62 363.42C372.62 363.65 372.47 363.84 372.29 363.84C372.1 363.84 371.95 364.03 371.95 364.27C371.95 364.5 371.66 365.21 371.31 365.85C369.89 368.45 368.27 371.64 367.65 373.06C366.92 374.73 364.58 379.37 363.56 381.18C363.2 381.82 362.9 382.54 362.9 382.77C362.9 383 362.75 383.19 362.57 383.19C362.38 383.19 362.23 383.46 362.23 383.78C362.23 384.1 362.08 384.45 361.9 384.55C361.47 384.79 361.46 389.04 361.88 390.28C362.05 390.79 362.37 391.82 362.58 392.57C365.42 402.33 378.11 412.98 391.39 416.74C392.22 416.98 393.05 417.26 393.23 417.36C393.42 417.47 394.25 417.73 395.07 417.94C395.9 418.16 396.84 418.45 397.16 418.6C397.48 418.75 398.12 418.88 398.57 418.88C399.02 418.88 399.47 419 399.58 419.15C399.68 419.3 400.37 419.5 401.1 419.6C401.84 419.7 403.05 419.87 403.79 419.97C404.53 420.07 405.22 420.27 405.32 420.42C405.42 420.57 406.29 420.69 407.26 420.69C408.23 420.69 409.16 420.82 409.33 420.97C410.14 421.68 430.88 421.96 436.29 421.33C437.86 421.15 439.97 420.92 440.99 420.82C442 420.72 442.97 420.51 443.15 420.36C443.32 420.21 444.03 420.09 444.72 420.09C445.41 420.09 446.07 419.95 446.18 419.78C446.29 419.62 446.78 419.48 447.26 419.48C448.16 419.48 450.07 419.01 451.12 418.54C451.44 418.39 452.01 418.27 452.38 418.27C452.75 418.27 453.32 418.15 453.64 418C454.41 417.65 455.63 417.21 457.07 416.75C463.74 414.66 471.85 410.23 476.48 406.16C481.36 401.86 485.89 395.23 485.89 392.39C485.89 392.01 486.04 391.61 486.23 391.51C486.41 391.41 486.57 390.68 486.57 389.9C486.57 389.12 486.71 387.96 486.88 387.31C487.07 386.56 487.05 385.86 486.83 385.35C486.64 384.91 486.36 384.28 486.22 383.95C486.08 383.62 485.58 382.6 485.12 381.68C484.05 379.56 482.63 376.69 481.97 375.33C480.7 372.67 477.64 366.68 477.16 365.89C476.99 365.6 476.84 365.15 476.84 364.9C476.84 364.65 476.69 364.45 476.51 364.45C476.32 364.45 476.17 364.25 476.17 364.02C476.17 363.79 475.88 363.07 475.52 362.43C474.9 361.33 473.37 358.38 471.88 355.37C471.51 354.62 470.59 352.81 469.84 351.35C469.08 349.88 468.47 348.63 468.47 348.56C468.47 348.35 464.89 341.27 464.08 339.88C463.91 339.59 463.77 339.15 463.77 338.9C463.77 338.64 463.62 338.44 463.44 338.44C463.25 338.44 463.1 338.17 463.1 337.83C463.1 337.5 462.95 337.23 462.77 337.23C462.58 337.23 462.43 337.04 462.43 336.8C462.43 336.57 462.14 335.86 461.78 335.22C461.11 334.04 459.43 330.76 458.08 328.01C457.67 327.18 456.95 325.75 456.49 324.83C456.03 323.92 455.36 322.56 455 321.81C454.64 321.06 454.11 319.97 453.83 319.39C453.12 317.94 451.37 314.51 451 313.87C450.84 313.58 450.7 313.14 450.7 312.89C450.7 312.64 450.55 312.43 450.37 312.43C450.18 312.43 450.03 312.16 450.03 311.83C450.03 311.5 449.88 311.22 449.7 311.22C449.51 311.22 449.36 311.03 449.36 310.8C449.36 310.57 449.07 309.85 448.71 309.21C448.35 308.57 447.5 306.96 446.83 305.63C446.16 304.3 445.26 302.53 444.84 301.7C444.42 300.87 443.55 299.17 442.91 297.92C442.26 296.67 441.33 294.77 440.83 293.69C439.82 291.5 438.57 289 437.6 287.23C437.25 286.59 436.96 285.88 436.96 285.64C436.96 285.41 436.81 285.22 436.63 285.22C436.44 285.22 436.29 285.03 436.29 284.81C436.29 284.58 435.86 283.59 435.32 282.61C434.32 280.79 432.49 277.23 431.44 275.09C431.11 274.42 430.42 273.04 429.88 272.01C429.82 271.88 429.5 271.26 428.92 270.14C428.92 265.72 428.92 263.26 428.92 262.77C428.92 254.64 428.91 254.68 431 254.68C431.71 254.68 432.54 254.55 432.86 254.4C433.18 254.25 433.95 253.95 434.57 253.75C440.76 251.67 442.68 242.27 437.81 237.89C436.41 236.63 434.79 235.63 434.15 235.63C433.85 235.63 433.61 235.5 433.61 235.35C433.61 235.21 433.05 235.01 432.36 234.91C431.67 234.81 430.19 234.6 429.09 234.43C427.98 234.27 426.48 234.05 425.74 233.95C425 233.85 422.36 233.5 419.87 233.16C417.39 232.83 414.44 232.42 413.34 232.26C411.31 231.96 409.12 231.65 405.13 231.09C402.93 230.78 401.21 230.52 396.92 229.88C395.63 229.68 393.7 229.4 392.65 229.25C391.59 229.1 389.85 228.84 388.79 228.68C387.73 228.52 385.81 228.24 384.52 228.06C381.74 227.66 379.07 227.27 376.31 226.86C375.2 226.69 373.39 226.42 372.29 226.25C371.18 226.09 369.37 225.81 368.27 225.65C367.16 225.48 365.31 225.2 364.16 225.03C363.01 224.85 361.24 224.64 360.22 224.55C359.21 224.46 358.24 224.26 358.06 224.11C357.89 223.96 356.95 223.83 355.99 223.83C355.02 223.83 354.14 223.7 354.02 223.53C353.91 223.36 353.02 223.23 352.06 223.23C351.09 223.23 350.16 223.1 349.98 222.95C349.81 222.8 348.84 222.6 347.82 222.51C346.81 222.42 345 222.2 343.8 222.02C342.6 221.84 340.72 221.6 339.61 221.48C336.63 221.14 336.76 221.4 336.76 216.07C336.76 211.32 336.97 210.48 338.43 209.32C338.63 209.16 340.7 205.34 341.12 204.33C342.42 201.29 342.38 193.25 341.07 191.94C340.92 191.79 340.79 191.34 340.79 190.96C340.79 190.58 340.63 190.27 340.45 190.27C340.27 190.27 340.12 189.99 340.12 189.66C340.12 189.33 339.96 189.06 339.78 189.06C339.6 189.06 339.45 188.91 339.45 188.73C339.45 188.09 337.27 185.53 335.16 183.71C330.54 179.72 324.37 177.87 317.33 178.37M322.21 187.05C325.11 187.62 327.23 188.67 329.01 190.43C330.47 191.88 330.77 192.31 331.67 194.2C332.62 196.2 332.64 201.41 331.69 201.93C331.53 202.02 331.4 202.3 331.4 202.55C331.4 203.13 329.54 205.59 328.4 206.52C324.12 210.04 316.04 210.03 311.61 206.5C310.49 205.61 308.61 203.13 308.61 202.55C308.61 202.3 308.48 202.02 308.32 201.93C308.01 201.76 307.54 199.39 307.56 198.13C307.61 195.08 308.65 192.77 311.01 190.43C312.75 188.71 314.92 187.61 317.66 187.07C320.04 186.59 319.84 186.59 322.21 187.05M320.01 217.86C322.31 217.85 324.73 217.8 325.37 217.74C325.45 217.73 325.84 217.7 326.54 217.63L326.63 289.22L326.71 360.82L320.01 360.82L313.31 360.82C313.31 317.94 313.31 294.12 313.31 289.35C313.31 250.04 313.42 217.78 313.56 217.66C313.69 217.54 314.26 217.53 314.81 217.66C315.37 217.78 317.7 217.87 320.01 217.86M303.08 237.77L303.08 245.76C275.34 245.81 259.92 245.83 256.84 245.84C207.68 245.93 209.08 245.95 209.09 244.92C209.1 243.89 209.47 243.58 210.93 243.39C211.66 243.29 213.17 243.06 214.28 242.88C216.21 242.57 217.83 242.32 222.15 241.67C225.82 241.12 228 240.79 229.86 240.5C230.88 240.34 232.76 240.05 234.05 239.86C235.34 239.67 237.15 239.39 238.07 239.25C239.59 239.02 240.92 238.82 246.11 238.05C247.04 237.91 248.7 237.65 249.8 237.48C252.15 237.11 255.02 236.67 257.84 236.26C268.15 234.78 270.5 234.46 272.92 234.22C273.85 234.13 274.74 233.93 274.92 233.78C275.09 233.63 276.01 233.51 276.95 233.51C277.89 233.51 278.8 233.39 278.97 233.23C279.15 233.08 280.05 232.89 280.97 232.79C281.89 232.7 283.59 232.49 284.74 232.31C289.33 231.62 290.77 231.4 292.7 231.09C298.27 230.19 302.28 229.65 302.75 229.73C302.96 229.76 303.08 232.68 303.08 237.77M340.12 230.42C341.13 230.48 342.1 230.66 342.28 230.81C342.45 230.97 343.36 231.09 344.3 231.09C345.24 231.09 346.16 231.21 346.33 231.37C346.51 231.52 347.48 231.71 348.49 231.8C349.51 231.89 351.28 232.11 352.43 232.28C353.58 232.46 355.47 232.74 356.62 232.92C357.77 233.09 359.47 233.3 360.39 233.39C361.31 233.47 362.37 233.66 362.74 233.81C363.1 233.96 364.16 234.15 365.08 234.23C367.37 234.44 374.49 235.4 384.52 236.87C385.62 237.03 387.51 237.31 388.71 237.48C389.91 237.65 391.72 237.91 392.73 238.07C393.74 238.22 395.55 238.48 396.75 238.65C397.95 238.82 399.83 239.09 400.94 239.26C402.05 239.42 403.93 239.69 405.13 239.87C406.33 240.04 408.17 240.31 409.23 240.47C410.29 240.63 412.07 240.9 413.17 241.07C414.28 241.24 416.12 241.51 417.28 241.69C418.43 241.86 420.2 242.08 421.21 242.17C422.23 242.26 423.2 242.46 423.38 242.61C423.55 242.76 424.48 242.88 425.45 242.88C426.42 242.88 427.3 243.02 427.41 243.19C427.53 243.35 428.19 243.49 428.87 243.49C430.86 243.49 431.95 245.37 430.18 245.76C429.76 245.85 408.61 245.88 383.18 245.84C380.09 245.83 364.68 245.81 336.93 245.76C336.88 241.22 336.85 238.7 336.84 238.2C336.75 230.08 336.79 229.69 337.69 230.06C338.01 230.19 339.1 230.35 340.12 230.42M216.82 283.93C217.01 284.39 217.7 285.79 218.35 287.03C219.01 288.28 219.81 289.84 220.14 290.51C220.47 291.18 221.27 292.74 221.91 293.99C223.02 296.15 223.69 297.46 225.59 301.24C226.05 302.16 226.77 303.66 227.19 304.57C227.61 305.49 228.09 306.36 228.24 306.52C228.39 306.68 228.52 307.05 228.52 307.35C228.52 307.65 228.67 307.9 228.86 307.9C229.04 307.9 229.19 308.09 229.19 308.32C229.19 308.56 229.48 309.27 229.83 309.91C230.18 310.55 231.1 312.3 231.86 313.79C232.62 315.29 233.39 316.75 233.56 317.04C233.74 317.33 233.88 317.77 233.88 318.02C233.88 318.28 234.03 318.48 234.22 318.48C234.4 318.48 234.55 318.67 234.55 318.91C234.55 319.14 234.85 319.85 235.21 320.49C235.57 321.13 236.38 322.68 237.01 323.92C237.64 325.17 238.7 327.26 239.37 328.56C240.04 329.87 240.59 330.98 240.59 331.04C240.59 331.09 241.12 332.2 241.77 333.5C242.43 334.8 243.09 336.14 243.25 336.47C243.82 337.68 246.32 342.53 246.63 343.05C246.81 343.34 246.95 343.78 246.95 344.03C246.95 344.28 247.1 344.49 247.29 344.49C247.47 344.49 247.62 344.66 247.62 344.87C247.62 345.08 248.06 346.07 248.59 347.06C249.86 349.43 251.74 353.06 252.58 354.77C252.94 355.52 253.58 356.81 254 357.64C254.41 358.47 255.01 359.7 255.33 360.36C256.66 363.14 258.89 367.54 260.06 369.69C260.41 370.33 260.69 371.04 260.69 371.28C260.69 371.51 260.84 371.7 261.03 371.7C261.21 371.7 261.36 371.89 261.36 372.13C261.36 372.36 261.66 373.08 262.02 373.72C263.61 376.53 265.4 380.23 265.47 380.85C265.48 380.9 265.5 381.12 265.55 381.53C235.8 381.58 219.28 381.6 215.97 381.61C185.17 381.65 166.27 381.57 166.08 381.4C165.88 381.22 165.98 380.68 166.35 379.96C166.67 379.33 167.46 377.79 168.09 376.54C168.72 375.29 169.53 373.75 169.89 373.11C170.25 372.47 170.55 371.76 170.55 371.52C170.55 371.29 170.7 371.1 170.88 371.1C171.07 371.1 171.22 370.89 171.22 370.64C171.22 370.39 171.36 369.95 171.54 369.66C171.96 368.97 173.87 365.2 175.24 362.33C175.84 361.08 176.82 359.11 177.42 357.94C178.02 356.78 178.85 355.15 179.26 354.31C180.57 351.64 182.29 348.3 182.96 347.1C183.32 346.46 183.62 345.75 183.62 345.52C183.62 345.28 183.77 345.09 183.95 345.09C184.13 345.09 184.29 344.9 184.29 344.67C184.29 344.43 184.57 343.72 184.92 343.08C186.35 340.49 187.97 337.29 188.59 335.87C188.95 335.04 189.88 333.13 190.64 331.64C191.4 330.14 192.31 328.37 192.64 327.7C192.98 327.04 193.67 325.68 194.18 324.68C194.68 323.68 195.61 321.85 196.26 320.6C196.9 319.35 197.7 317.79 198.03 317.12C198.35 316.46 199.15 314.89 199.8 313.64C200.44 312.4 201.21 310.9 201.49 310.32C202.69 307.87 205.05 303.08 205.9 301.4C206.4 300.4 207.19 298.83 207.65 297.92C208.1 297 208.93 295.37 209.49 294.29C210.05 293.21 210.88 291.58 211.34 290.66C212.13 289.1 214.08 285.29 214.87 283.78C215.37 282.84 216.4 282.92 216.82 283.93M425.4 284.24C425.72 284.86 426.5 286.39 427.15 287.64C427.79 288.88 428.59 290.45 428.92 291.11C429.25 291.78 430.05 293.34 430.69 294.59C431.33 295.84 432.27 297.68 432.77 298.67C433.27 299.67 433.96 301.03 434.3 301.7C435.83 304.68 437.3 307.65 437.3 307.76C437.3 307.98 440.52 314.33 442.02 317.07C442.37 317.71 442.66 318.43 442.66 318.66C442.66 318.89 442.81 319.09 443 319.09C443.18 319.09 443.33 319.28 443.33 319.51C443.33 319.74 443.63 320.46 443.99 321.1C444.61 322.19 446.3 325.49 447.46 327.86C447.74 328.44 448.66 330.26 449.51 331.9C450.35 333.54 451.04 334.93 451.04 335C451.04 335.21 453.69 340.49 455.1 343.08C455.45 343.72 455.73 344.43 455.73 344.67C455.73 344.9 455.88 345.09 456.07 345.09C456.25 345.09 456.4 345.28 456.4 345.52C456.4 345.75 456.7 346.46 457.06 347.1C457.42 347.74 458.26 349.36 458.94 350.69C459.61 352.02 460.5 353.79 460.92 354.62C461.34 355.45 462.21 357.15 462.86 358.4C463.5 359.64 464.44 361.55 464.94 362.63C465.97 364.86 467.99 368.87 468.48 369.66C468.65 369.95 468.8 370.39 468.8 370.64C468.8 370.89 468.95 371.1 469.14 371.1C469.32 371.1 469.47 371.29 469.47 371.52C469.47 371.76 469.76 372.47 470.12 373.11C472.36 377.09 474.18 380.89 474.03 381.26C473.87 381.62 466.66 381.67 424.16 381.61C420.84 381.6 404.28 381.58 374.46 381.53C374.51 381.12 374.54 380.9 374.54 380.85C374.62 380.23 376.41 376.53 378 373.72C378.36 373.08 378.65 372.36 378.65 372.13C378.65 371.89 378.8 371.7 378.99 371.7C379.17 371.7 379.32 371.51 379.32 371.28C379.32 371.04 379.61 370.33 379.96 369.69C380.3 369.05 381.04 367.64 381.6 366.56C382.15 365.48 383.07 363.69 383.65 362.57C384.22 361.46 384.69 360.48 384.69 360.39C384.69 360.31 385.36 358.92 386.19 357.32C387.02 355.72 387.7 354.37 387.7 354.31C387.7 354.16 390.96 347.85 391.73 346.5C392.09 345.86 392.39 345.15 392.39 344.91C392.39 344.68 392.54 344.49 392.73 344.49C392.91 344.49 393.06 344.28 393.06 344.03C393.06 343.78 393.21 343.34 393.38 343.05C393.86 342.25 396.92 336.26 398.19 333.6C398.47 333.02 399.08 331.79 399.53 330.88C399.99 329.96 400.7 328.54 401.11 327.7C402.46 324.95 404.14 321.67 404.81 320.49C405.17 319.85 405.46 319.14 405.46 318.91C405.46 318.67 405.61 318.48 405.8 318.48C405.98 318.48 406.13 318.28 406.13 318.02C406.13 317.77 406.28 317.33 406.46 317.04C406.63 316.75 407.54 315.02 408.48 313.19C409.42 311.36 410.32 309.63 410.5 309.34C410.68 309.05 410.83 308.61 410.83 308.35C410.83 308.1 410.98 307.9 411.16 307.9C411.34 307.9 411.5 307.65 411.5 307.35C411.5 307.05 411.62 306.68 411.78 306.52C411.93 306.36 412.38 305.54 412.77 304.69C413.16 303.84 413.93 302.27 414.47 301.21C415 300.15 415.78 298.6 416.18 297.77C416.59 296.94 417.45 295.23 418.1 293.99C418.74 292.74 419.54 291.18 419.87 290.51C420.2 289.84 421.01 288.28 421.66 287.03C422.32 285.79 423.01 284.39 423.2 283.93C423.7 282.72 424.7 282.85 425.4 284.24M332.34 370.25C332.77 370.64 332.96 440.39 332.54 441.38C332.27 442.01 308.36 442.12 307.68 441.49C307.14 441.01 307.09 371.37 307.62 370.47C308.05 369.75 331.55 369.54 332.34 370.25M267.35 390.72C268.31 391.27 266.1 395.37 263.74 397.39C263.25 397.82 262.42 398.67 261.9 399.3C261.37 399.92 260.8 400.43 260.61 400.43C260.42 400.43 260.02 400.67 259.73 400.97C259.43 401.27 258.66 401.85 258.01 402.25C257.37 402.65 256.55 403.23 256.19 403.52C255.83 403.82 255.34 404.06 255.1 404.06C254.86 404.06 254.66 404.16 254.66 404.29C254.66 404.41 254.17 404.71 253.57 404.94C252.97 405.18 251.95 405.68 251.31 406.06C249.73 406.99 242.99 409.33 240.08 409.97C238.79 410.25 237.47 410.6 237.15 410.75C236.83 410.89 236.13 411.01 235.58 411.01C235.04 411.01 234.5 411.15 234.39 411.32C234.27 411.48 233.44 411.62 232.54 411.62C231.64 411.62 230.81 411.75 230.7 411.92C230.59 412.09 229.63 412.22 228.57 412.22C227.51 412.22 226.49 412.37 226.29 412.54C226.06 412.75 222.48 412.86 215.85 412.86C209.41 412.86 205.52 412.75 205.1 412.54C204.73 412.37 203.7 412.22 202.81 412.22C201.91 412.22 201.03 412.1 200.86 411.95C200.68 411.8 199.78 411.61 198.86 411.52C196.98 411.35 195.5 411.08 194.51 410.73C194.14 410.59 193.01 410.32 191.99 410.12C189.77 409.69 182.69 407.27 180.6 406.23C176.85 404.38 174.51 403.07 173.81 402.45C173.4 402.08 172.53 401.44 171.89 401.03C167.76 398.42 162.95 391.99 164.25 390.81C164.73 390.38 266.59 390.29 267.35 390.72M476.01 391.13C476.47 392.81 471.76 398.74 468.13 401.03C467.49 401.44 466.62 402.08 466.2 402.45C465.51 403.07 463.17 404.38 459.42 406.23C457.32 407.27 450.25 409.69 448.02 410.12C447.01 410.32 445.88 410.59 445.51 410.73C444.52 411.08 443.04 411.35 441.15 411.52C440.23 411.61 439.33 411.8 439.16 411.95C438.98 412.1 438.11 412.22 437.21 412.22C436.31 412.22 435.28 412.37 434.92 412.54C434.5 412.75 430.61 412.86 424.17 412.86C417.54 412.86 413.96 412.75 413.73 412.54C413.53 412.37 412.51 412.22 411.45 412.22C410.39 412.22 409.43 412.09 409.32 411.92C409.2 411.75 408.37 411.62 407.47 411.62C406.57 411.62 405.74 411.48 405.63 411.32C405.52 411.15 404.98 411.01 404.43 411.01C403.89 411.01 403.18 410.89 402.86 410.75C402.54 410.6 401.22 410.25 399.93 409.97C397.02 409.33 390.28 406.99 388.71 406.06C388.06 405.68 387.04 405.18 386.45 404.94C385.85 404.71 385.36 404.41 385.36 404.29C385.36 404.16 385.16 404.06 384.92 404.06C384.68 404.06 384.18 403.82 383.83 403.52C383.47 403.23 382.65 402.65 382.01 402.25C377.03 399.16 370.78 391.35 372.71 390.65C372.94 390.57 396.23 390.49 424.47 390.48C427.9 390.47 445.01 390.47 475.83 390.45L476.01 391.13M337.58 450.92C340.16 451.66 342.83 452.41 345.14 453.04C346.52 453.42 347.96 453.83 348.33 453.95C348.69 454.08 350.13 454.49 351.51 454.86C352.89 455.23 354.28 455.65 354.6 455.8C354.93 455.95 355.48 456.07 355.84 456.07C356.2 456.07 356.59 456.21 356.7 456.37C356.82 456.54 357.27 456.68 357.71 456.68C358.15 456.68 358.6 456.81 358.71 456.98C358.83 457.14 359.36 457.28 359.89 457.28C360.42 457.28 360.95 457.42 361.06 457.58C361.17 457.75 361.56 457.88 361.92 457.88C362.28 457.88 362.84 458.01 363.16 458.16C363.48 458.31 364.42 458.59 365.25 458.79C366.08 458.99 367.02 459.28 367.34 459.43C367.66 459.58 368.15 459.7 368.43 459.7C368.71 459.7 369.21 459.82 369.53 459.97C369.85 460.12 370.79 460.41 371.62 460.61C372.45 460.81 373.39 461.09 373.71 461.24C374.03 461.39 374.46 461.51 374.66 461.51C375.36 461.51 377.02 462.79 377.83 463.96C378.87 465.43 379.08 470.37 378.12 470.7C377.43 470.94 262.59 470.94 261.89 470.7C261.47 470.56 261.36 470.02 261.36 467.97C261.36 463.55 262.87 461.98 268.4 460.62C269.23 460.41 270.17 460.12 270.49 459.97C270.81 459.82 271.3 459.7 271.58 459.7C271.87 459.7 272.36 459.58 272.68 459.43C273 459.28 273.94 458.99 274.77 458.79C275.6 458.59 276.54 458.31 276.86 458.16C277.18 458.01 277.73 457.88 278.09 457.88C278.45 457.88 278.84 457.75 278.96 457.58C279.07 457.42 279.6 457.28 280.13 457.28C280.66 457.28 281.19 457.14 281.3 456.98C281.42 456.81 281.87 456.68 282.31 456.68C282.75 456.68 283.2 456.54 283.31 456.37C283.43 456.21 283.81 456.07 284.18 456.07C284.54 456.07 285.09 455.95 285.41 455.8C285.73 455.65 287.12 455.23 288.51 454.86C289.89 454.49 291.32 454.08 291.69 453.96C292.35 453.73 294.27 453.2 299.23 451.85C300.61 451.47 302.05 451.05 302.41 450.92C303.39 450.56 336.32 450.56 337.58 450.92" id="a3O3DUNlin"></path></defs><g><g><g><use xlink:href="#aXVoFJbWQ" opacity="1" fill="#0066b9" fill-opacity="1"></use></g><g><use xlink:href="#a3O3DUNlin" opacity="1" fill="#ffffff" fill-opacity="1"></use><g><use xlink:href="#a3O3DUNlin" opacity="1" fill-opacity="0" stroke="#000000" stroke-width="1" stroke-opacity="0"></use></g></g></g></g></svg>