<svg id="svg" xmlns="http://www.w3.org/2000/svg" xmlns:xlink="http://www.w3.org/1999/xlink" width="90" height="90" viewBox="0, 0, 400,400" version="1.1"><g id="svgg"><path id="path0" d="M153.906 1.822 C 143.255 4.982,132.161 13.118,126.419 21.979 C 124.762 24.538,123.538 25.677,122.714 25.429 C 77.896 11.921,35.041 56.800,50.431 101.126 L 52.585 107.330 50.707 108.541 C 38.273 116.556,31.531 130.572,32.208 147.004 L 32.592 156.327 29.382 158.539 C 1.858 177.512,1.624 220.988,28.938 241.039 L 32.590 243.720 32.207 253.020 C 31.532 269.424,38.281 283.450,50.701 291.455 L 52.574 292.662 50.310 299.261 C 47.027 308.833,46.983 327.693,50.224 336.618 C 61.154 366.719,93.163 383.478,122.714 374.571 C 123.539 374.323,124.768 375.473,126.446 378.062 C 141.279 400.954,177.148 407.961,186.367 389.768 L 188.281 385.989 188.281 349.260 L 188.281 312.530 186.523 312.208 C 134.049 302.593,99.787 270.473,88.918 220.703 C 87.532 214.353,87.532 185.647,88.918 179.297 C 96.772 143.334,118.765 114.573,150.391 98.908 C 161.686 93.313,168.320 91.274,186.523 87.805 L 188.281 87.470 188.281 50.740 L 188.281 14.011 186.367 10.232 C 181.354 0.340,169.369 -2.765,153.906 1.822 M223.047 1.085 C 219.224 2.755,215.675 6.204,213.633 10.232 L 211.719 14.011 211.719 50.740 L 211.719 87.470 213.477 87.792 C 275.589 99.173,314.219 144.573,312.265 203.895 C 310.419 259.985,272.682 301.360,213.477 312.208 L 211.719 312.530 211.719 349.260 L 211.719 385.989 213.633 389.768 C 222.864 407.983,258.702 400.982,273.554 378.062 C 275.232 375.473,276.461 374.323,277.286 374.571 C 322.036 388.058,364.935 343.132,349.569 298.874 L 347.415 292.670 349.293 291.459 C 361.720 283.449,368.469 269.427,367.793 253.020 L 367.410 243.720 371.010 241.059 C 398.434 220.785,398.434 179.215,371.010 158.941 L 367.410 156.280 367.793 146.980 C 368.468 130.592,361.715 116.544,349.326 108.563 L 347.480 107.374 349.635 100.757 C 364.245 55.899,322.028 11.944,277.286 25.429 C 276.461 25.677,275.232 24.527,273.554 21.938 C 263.354 6.197,236.615 -4.842,223.047 1.085 M186.328 110.670 C 126.368 120.197,92.665 184.704,119.043 239.453 C 145.656 294.691,219.813 307.343,263.324 264.069 C 303.021 224.587,297.695 158.784,252.173 126.300 C 235.017 114.058,206.946 107.394,186.328 110.670 M214.298 137.303 C 239.403 149.097,241.403 182.523,217.957 198.445 C 212.568 202.105,211.918 203.451,211.474 211.873 C 210.938 222.043,207.364 226.569,199.879 226.557 C 181.785 226.530,185.442 193.224,204.988 180.027 C 216.420 172.309,213.190 157.053,200.121 157.036 C 192.922 157.028,188.938 160.746,187.917 168.425 C 185.618 185.720,164.661 182.920,165.781 165.467 C 167.254 142.508,193.253 127.416,214.298 137.303 M205.749 253.045 C 209.159 255.294,210.927 258.522,210.927 262.500 C 210.927 264.633,210.348 266.894,209.455 268.249 C 201.623 280.129,183.735 269.600,190.272 256.958 C 192.881 251.914,200.942 249.876,205.749 253.045 " stroke="none" fill="#0066b9"></path></g></svg>