<svg id="svg" version="1.1" xmlns="http://www.w3.org/2000/svg" xmlns:xlink="http://www.w3.org/1999/xlink" width="400" height="400" viewBox="0, 0, 400,400"><g id="svgg"><path id="path0" d="M31.990 2.982 C 27.451 7.521,26.945 12.921,30.620 17.594 C 33.695 21.502,35.865 21.875,55.504 21.875 L 73.558 21.875 75.841 24.159 C 78.664 26.981,78.754 29.602,76.135 32.714 L 74.145 35.079 47.814 35.313 C 16.417 35.592,14.055 36.385,14.065 46.641 C 14.075 55.948,17.500 57.372,40.588 57.668 C 61.579 57.936,62.406 58.127,63.622 62.971 C 65.430 70.175,61.979 71.094,33.127 71.094 C 2.525 71.094,0.006 71.926,0.006 82.031 C 0.006 92.186,2.325 92.969,32.408 92.969 C 59.787 92.969,61.442 93.215,63.241 97.560 C 64.068 99.556,64.068 100.444,63.241 102.440 C 61.478 106.698,59.495 107.031,35.924 107.031 C 18.350 107.031,14.370 107.236,12.427 108.241 C 6.957 111.069,5.176 119.550,9.077 124.187 C 13.188 129.072,11.459 128.906,58.203 128.906 C 105.087 128.906,104.478 128.847,106.135 133.599 C 107.340 137.056,106.782 137.994,94.977 152.343 C 82.403 167.628,81.151 171.066,86.293 176.207 C 93.059 182.973,93.043 182.985,135.170 140.988 C 179.229 97.064,174.069 100.633,194.213 100.152 L 208.347 99.815 207.977 94.040 C 207.308 83.615,213.694 74.450,223.698 71.479 C 232.728 68.798,238.352 70.450,248.842 78.866 C 253.131 82.308,256.904 85.131,257.227 85.140 C 257.549 85.149,257.813 70.742,257.813 53.125 L 257.813 21.094 222.780 21.094 C 181.138 21.094,185.883 22.044,164.891 9.499 L 148.995 0.000 91.984 0.000 L 34.972 0.000 31.990 2.982 M311.952 1.531 C 307.139 4.466,307.031 5.141,307.031 32.408 C 307.031 59.787,306.785 61.442,302.440 63.241 C 300.444 64.068,299.556 64.068,297.560 63.241 C 293.298 61.476,292.969 59.507,292.966 35.767 C 292.963 16.006,292.852 14.271,291.438 11.952 C 288.268 6.754,280.314 5.290,275.813 9.077 C 270.928 13.188,271.094 11.459,271.094 58.203 C 271.094 105.087,271.153 104.478,266.401 106.135 C 262.945 107.340,262.005 106.780,247.691 95.005 C 232.509 82.516,229.287 81.337,223.921 86.310 C 216.928 92.792,217.003 92.897,259.035 135.166 C 302.961 179.340,299.369 174.135,299.850 194.314 L 300.190 208.550 304.641 208.085 C 317.358 206.756,328.480 215.891,329.492 228.497 C 330.073 235.735,328.409 239.775,321.089 248.898 C 317.672 253.156,314.869 256.904,314.860 257.227 C 314.851 257.549,329.258 257.813,346.875 257.813 L 378.906 257.813 378.906 222.780 C 378.906 181.138,377.956 185.883,390.501 164.891 L 400.000 148.995 400.000 91.984 L 400.000 34.972 397.018 31.990 C 392.479 27.451,387.079 26.945,382.406 30.620 C 378.498 33.695,378.125 35.865,378.125 55.504 L 378.125 73.558 375.841 75.841 C 373.019 78.664,370.398 78.754,367.286 76.135 L 364.921 74.145 364.687 47.814 C 364.408 16.417,363.615 14.055,353.359 14.065 C 344.052 14.075,342.628 17.500,342.332 40.588 C 342.064 61.579,341.873 62.406,337.029 63.622 C 329.825 65.430,328.906 61.979,328.906 33.127 C 328.906 5.838,328.685 4.396,324.070 1.583 C 320.708 -0.467,315.267 -0.491,311.952 1.531 M21.094 177.220 C 21.094 218.904,22.032 214.227,9.481 235.108 L 0.000 250.882 0.000 307.955 L 0.000 365.028 2.982 368.010 C 7.521 372.549,12.921 373.055,17.594 369.380 C 21.502 366.305,21.875 364.135,21.875 344.496 L 21.875 326.442 24.159 324.159 C 26.981 321.336,29.602 321.246,32.714 323.865 L 35.079 325.855 35.313 352.186 C 35.597 384.157,36.591 386.824,47.822 385.745 C 56.526 384.909,57.802 381.323,57.808 357.687 L 57.813 339.983 60.216 337.960 C 63.004 335.614,64.060 335.492,67.260 337.147 C 70.892 339.025,71.094 340.587,71.094 366.873 C 71.094 397.366,71.947 399.988,81.875 399.997 C 92.243 400.006,92.962 397.914,92.966 367.748 C 92.969 340.201,93.212 338.559,97.560 336.759 C 99.556 335.932,100.444 335.932,102.440 336.759 C 106.698 338.522,107.031 340.505,107.031 364.076 C 107.031 381.650,107.236 385.630,108.241 387.573 C 111.069 393.043,119.550 394.824,124.187 390.923 C 129.072 386.812,128.906 388.532,128.906 341.887 C 128.906 296.242,128.925 296.023,132.994 294.083 C 136.638 292.345,137.628 292.903,152.344 304.996 C 168.030 317.886,173.064 319.338,177.401 312.224 C 181.635 305.281,183.117 307.197,140.162 264.063 C 97.177 220.896,100.633 225.932,100.152 205.775 L 99.814 191.628 94.543 192.005 C 81.045 192.971,70.313 183.302,70.313 170.175 C 70.312 163.026,71.745 159.853,79.013 150.907 C 82.385 146.756,85.147 143.096,85.150 142.773 C 85.154 142.451,70.742 142.188,53.125 142.188 L 21.094 142.188 21.094 177.220 M303.131 221.970 C 302.059 222.397,284.650 239.233,264.444 259.384 C 220.822 302.886,225.923 299.367,205.787 299.848 L 191.653 300.185 192.023 305.960 C 192.692 316.385,186.306 325.550,176.302 328.521 C 167.351 331.179,161.513 329.443,150.982 320.993 C 146.790 317.629,143.096 314.869,142.773 314.860 C 142.451 314.851,142.188 329.258,142.188 346.875 L 142.188 378.906 177.220 378.906 C 218.862 378.906,214.117 377.956,235.109 390.501 L 251.005 400.000 307.864 400.000 L 364.724 400.000 367.156 397.954 C 372.086 393.805,373.230 388.197,370.102 383.514 C 366.740 378.482,365.069 378.128,344.666 378.126 L 326.442 378.125 324.159 375.841 C 321.336 373.019,321.246 370.398,323.865 367.286 L 325.855 364.921 352.186 364.687 C 383.583 364.408,385.945 363.615,385.935 353.359 C 385.925 344.052,382.500 342.628,359.412 342.332 C 338.421 342.064,337.594 341.873,336.378 337.029 C 334.570 329.825,338.021 328.906,366.873 328.906 C 397.475 328.906,399.994 328.074,399.994 317.969 C 399.994 307.814,397.675 307.031,367.592 307.031 C 340.213 307.031,338.558 306.785,336.759 302.440 C 335.932 300.444,335.932 299.556,336.759 297.560 C 338.524 293.298,340.493 292.969,364.233 292.966 C 383.994 292.963,385.729 292.852,388.048 291.438 C 393.246 288.268,394.710 280.314,390.923 275.813 C 386.812 270.928,388.541 271.094,341.797 271.094 C 294.913 271.094,295.522 271.153,293.865 266.401 C 292.662 262.950,293.234 261.982,304.717 248.047 C 310.383 241.172,315.330 234.733,315.712 233.738 C 318.746 225.833,311.183 218.758,303.131 221.970 " stroke="none" fill="#0066b9"></path></g></svg>