<svg id="svg" xmlns="http://www.w3.org/2000/svg" xmlns:xlink="http://www.w3.org/1999/xlink" width="400" height="400" viewBox="0, 0, 400,400" version="1.1"><g id="svgg"><path id="path0" d="M163.281 2.596 C 5.482 31.070,-55.282 227.648,58.535 341.465 C 184.843 467.773,399.990 378.638,399.990 200.000 C 399.990 74.296,287.201 -19.764,163.281 2.596 M235.261 22.724 C 315.515 39.281,373.088 104.738,380.533 187.891 L 381.617 200.000 361.352 200.000 L 341.088 200.000 340.118 186.328 C 335.258 117.797,277.678 62.908,207.422 59.832 L 187.500 58.960 187.500 38.616 L 187.500 18.272 205.183 19.220 C 214.909 19.741,228.444 21.318,235.261 22.724 M217.188 79.794 C 316.542 95.892,355.907 214.674,285.290 285.290 C 213.279 357.302,92.963 315.149,79.312 213.126 C 69.185 137.435,141.475 67.527,217.188 79.794 " stroke="none" fill="#0066b9"></path></g></svg>