<svg xmlns="http://www.w3.org/2000/svg" xmlns:xlink="http://www.w3.org/1999/xlink" width="25" height="20" viewBox="0 0 25 20">
  <defs>
    <clipPath id="clip-path">
      <rect id="contentArea" width="25" height="20" transform="translate(319.452 0.12)" fill="#a5c8fb"/>
    </clipPath>
  </defs>
  <g id="Grupo_de_máscara_2" data-name="Grupo de máscara 2" transform="translate(-319.452 -0.12)" clip-path="url(#clip-path)">
    <g id="icons8-development-skill-100" transform="translate(322.583)">
      <path id="Caminho_20" data-name="Caminho 20" d="M59.12-820.28c-2.412.52-4.365,2.982-4.764,6.053a11.717,11.717,0,0,1-1,2.71,10.3,10.3,0,0,0-.877,2.1c0,.407.777,1.2,1.4,1.423.279.09.4.452.5,1.423.319,3.117.977,4.111,2.711,4.111h.977v1.807H66l.08-2.326a7.558,7.558,0,0,1,1.036-4.337,18.433,18.433,0,0,1,1.475-2.642l.478-.61-.439-.677c-.618-.994-.458-1.445.558-1.694l.837-.2v-2.168l-.837-.181c-1.017-.226-1.176-.678-.538-1.671l.439-.7-.718-.79-.7-.813-.618.5c-.877.7-1.276.542-1.495-.587l-.159-.926H62.668A23.391,23.391,0,0,0,59.12-820.28Zm5.76,1.378c.04.61.2.813.817,1.152.737.384.777.384,1.316-.045.777-.633,1.156-.2.618.655a1.406,1.406,0,0,0-.159,1.445c.2.723.319.836,1,.949.558.113.757.248.757.565s-.14.429-.538.429c-.737,0-.957.2-1.216,1.107a1.273,1.273,0,0,0,.159,1.378c.538.858.159,1.287-.618.655-.538-.429-.578-.429-1.316-.045-.618.339-.777.542-.817,1.152-.04.542-.159.723-.458.723-.239,0-.379-.158-.379-.429a1.383,1.383,0,0,0-.937-1.491c-.638-.316-.737-.294-1.236.113-.777.61-1.156.181-.6-.7.379-.61.379-.655.04-1.491-.3-.7-.478-.881-1.017-.926-.478-.045-.638-.181-.638-.52,0-.271.14-.429.379-.429.7,0,1.036-.271,1.316-1.062.279-.723.259-.836-.1-1.4-.538-.881-.159-1.31.618-.677.538.429.578.429,1.316.045.618-.339.777-.542.817-1.152.04-.52.159-.723.439-.723S64.841-819.422,64.881-818.9Z" transform="translate(-52.483 820.483)" fill="#a5c8fb"/>
      <path id="Caminho_21" data-name="Caminho 21" d="M492.663-663.288c-1.734,1.084-1,4.2.977,4.2a2.261,2.261,0,0,0,1.993-2.236A2.02,2.02,0,0,0,492.663-663.288Zm1.774,1.039a1.651,1.651,0,0,1,.4.9,1.545,1.545,0,0,1-1.2,1.355,1.323,1.323,0,0,1-.8-.452,1.651,1.651,0,0,1-.4-.9,1.651,1.651,0,0,1,.4-.9,1.324,1.324,0,0,1,.8-.452A1.323,1.323,0,0,1,494.437-662.249Z" transform="translate(-481.68 667.624)" fill="#a5c8fb"/>
    </g>
  </g>
</svg>
