<?xml version="1.0" encoding="UTF-8" standalone="no"?>
<!DOCTYPE svg PUBLIC "-//W3C//DTD SVG 1.1//EN" "http://www.w3.org/Graphics/SVG/1.1/DTD/svg11.dtd">
<svg version="1.1" xmlns="http://www.w3.org/2000/svg" xmlns:xlink="http://www.w3.org/1999/xlink" preserveAspectRatio="xMidYMid meet" viewBox="0 0 640 640" width="180" height="180"><defs><path d="M614.83 52.02L591.04 90.13L305.5 90.13L54.2 90.13L25.17 52.02C25.17 242 25.17 360.74 25.17 408.23C25.17 507.5 105.65 587.98 204.92 587.98C286.9 587.98 349.57 587.98 430.67 587.98C532.38 587.98 614.83 505.53 614.83 403.82C614.83 356.92 614.83 239.65 614.83 52.02Z" id="g16RO3EzA"></path></defs><g><g><g><g><filter id="shadow4311378" x="16.17" y="43.02" width="608.66" height="554.95" filterUnits="userSpaceOnUse" primitiveUnits="userSpaceOnUse"><feFlood></feFlood><feComposite in2="SourceAlpha" operator="in"></feComposite><feGaussianBlur stdDeviation="1"></feGaussianBlur><feOffset dx="1" dy="1" result="afterOffset"></feOffset><feFlood flood-color="#000000" flood-opacity="0.5"></feFlood><feComposite in2="afterOffset" operator="in"></feComposite><feMorphology operator="dilate" radius="1"></feMorphology><feComposite in2="SourceAlpha" operator="out"></feComposite></filter><path d="M614.83 52.02L591.04 90.13L305.5 90.13L54.2 90.13L25.17 52.02C25.17 242 25.17 360.74 25.17 408.23C25.17 507.5 105.65 587.98 204.92 587.98C286.9 587.98 349.57 587.98 430.67 587.98C532.38 587.98 614.83 505.53 614.83 403.82C614.83 356.92 614.83 239.65 614.83 52.02Z" id="b8RsdUpOG" fill="white" fill-opacity="1" filter="url(#shadow4311378)"></path></g><use xlink:href="#g16RO3EzA" opacity="0.59" fill="#182172" fill-opacity="0.85"></use><g><use xlink:href="#g16RO3EzA" opacity="0.59" fill-opacity="0" stroke="#7b9a4d" stroke-width="1" stroke-opacity="1"></use></g><g><filter id="shadow8405111" x="16.17" y="43.02" width="608.66" height="554.95" filterUnits="userSpaceOnUse" primitiveUnits="userSpaceOnUse"><feFlood></feFlood><feComposite in2="SourceAlpha" operator="out"></feComposite><feGaussianBlur stdDeviation="1"></feGaussianBlur><feOffset dx="1" dy="1" result="afterOffset"></feOffset><feFlood flood-color="#ffffff" flood-opacity="0.8"></feFlood><feComposite in2="afterOffset" operator="in"></feComposite><feMorphology operator="dilate" radius="1"></feMorphology><feComposite in2="SourceAlpha" operator="in"></feComposite></filter><path d="M614.83 52.02L591.04 90.13L305.5 90.13L54.2 90.13L25.17 52.02C25.17 242 25.17 360.74 25.17 408.23C25.17 507.5 105.65 587.98 204.92 587.98C286.9 587.98 349.57 587.98 430.67 587.98C532.38 587.98 614.83 505.53 614.83 403.82C614.83 356.92 614.83 239.65 614.83 52.02Z" id="d5G6rtUCY" fill="white" fill-opacity="1" filter="url(#shadow8405111)"></path></g></g></g></g></svg>